<svg xmlns="http://www.w3.org/2000/svg" xmlns:xlink="http://www.w3.org/1999/xlink" width="1080" zoomAndPan="magnify" viewBox="0 0 810 809.999993" height="1080" preserveAspectRatio="xMidYMid meet" version="1.0"><path fill="#fce363" d="M 697.511719 471.960938 C 757.652344 471.960938 810 449.3125 810 421.335938 C 810 393.355469 757.621094 370.710938 697.511719 370.710938 C 637.402344 370.710938 585.023438 393.355469 585.023438 421.335938 C 585.023438 449.3125 637.367188 471.960938 697.511719 471.960938 Z M 699.605469 426.769531 C 692.886719 424.742188 672.265625 423.023438 672.265625 411.582031 C 672.265625 405.203125 679.792969 399.5 693.832031 398.214844 L 693.832031 393.222656 L 701.054688 393.222656 L 701.054688 397.980469 C 706.320312 398.113281 712.191406 398.6875 718.707031 400.003906 L 716.074219 407.734375 C 711.113281 406.585938 705.578125 405.507812 700.144531 405.507812 L 698.523438 405.539062 C 687.691406 405.980469 686.8125 411.984375 694.304688 414.550781 C 706.589844 418.332031 722.789062 421.132812 722.789062 431.191406 C 722.789062 439.222656 713.035156 443.542969 701.019531 444.589844 L 701.019531 449.515625 L 693.796875 449.515625 L 693.796875 444.824219 C 686.375 444.757812 678.578125 443.542969 672.132812 441.382812 L 675.4375 433.652344 C 680.941406 435.070312 687.824219 436.488281 694.070312 436.488281 L 698.761719 436.152344 C 707.097656 435.003906 708.75 429.402344 699.605469 426.769531 Z M 697.511719 606.960938 C 740.070312 606.960938 784.25 596.058594 810 575.4375 L 810 590.085938 C 810 618.0625 757.621094 641.25 697.511719 641.25 C 637.402344 641.25 585.023438 618.0625 585.023438 590.085938 L 585.023438 575.4375 C 610.773438 596.09375 654.917969 606.960938 697.511719 606.960938 Z M 697.511719 494.472656 C 740.070312 494.472656 784.25 483.570312 810 462.949219 L 810 477.597656 C 810 505.574219 757.621094 528.222656 697.511719 528.222656 C 637.402344 528.222656 585.023438 505.574219 585.023438 477.597656 L 585.023438 462.949219 C 610.773438 483.570312 654.917969 494.472656 697.511719 494.472656 Z M 697.511719 550.734375 C 740.070312 550.734375 784.25 539.832031 810 519.175781 L 810 533.859375 C 810 561.800781 757.621094 584.484375 697.511719 584.484375 C 637.402344 584.484375 585.023438 561.800781 585.023438 533.859375 L 585.023438 519.175781 C 610.773438 539.832031 654.917969 550.734375 697.511719 550.734375 Z M 412.628906 446.480469 C 412.628906 466.761719 396.765625 477.597656 377.191406 480.296875 L 377.191406 492.75 L 365.34375 492.75 L 365.34375 480.9375 C 353.125 480.734375 340.46875 477.832031 329.90625 472.363281 L 335.304688 452.957031 C 346.578125 457.3125 361.632812 461.96875 373.375 459.335938 C 386.945312 456.265625 389.746094 442.292969 374.761719 435.542969 C 363.757812 430.480469 330.109375 426.058594 330.109375 397.269531 C 330.109375 381.171875 342.359375 366.761719 365.34375 363.589844 L 365.34375 351 L 377.191406 351 L 377.191406 363.015625 C 385.730469 363.21875 395.347656 364.734375 406.046875 367.976562 L 401.761719 387.417969 C 392.679688 384.242188 382.65625 381.339844 372.902344 381.949219 C 355.320312 382.996094 353.765625 398.214844 366.019531 404.59375 C 386.234375 414.113281 412.628906 421.167969 412.628906 446.480469 Z M 607.5 202.5 L 33.75 202.5 L 33.75 540 L 0 540 L 0 168.75 L 607.5 168.75 Z M 67.5 236.25 L 67.5 607.5 L 540 607.5 L 540 421.335938 C 540 360.855469 606.992188 329.871094 675 324.304688 L 675 236.25 Z M 371.25 540 C 306.011719 540 253.125 487.113281 253.125 421.875 C 253.125 356.636719 306.011719 303.75 371.25 303.75 C 436.488281 303.75 489.375 356.636719 489.375 421.875 C 489.375 487.113281 436.488281 540 371.25 540 Z M 371.25 540 " fill-opacity="1" fill-rule="nonzero"/></svg>