<svg id="Layer_1" data-name="Layer 1" xmlns="http://www.w3.org/2000/svg" viewBox="0 0 128 128"><defs><style>.cls-1{fill:#2d3e50;}.cls-2{fill:#2e79bd;}</style></defs><title>n</title><path class="cls-1" d="M95.39114,28.40421H2.19674V99.59579H125.80326V28.40421Zm20.4008,43.13755A25.00689,25.00689,0,0,0,96.01414,89.58448H31.98586A25.00689,25.00689,0,0,0,12.20805,71.54176V56.45811A25.00694,25.00694,0,0,0,31.98586,38.41552H96.01414a25.00694,25.00694,0,0,0,19.77781,18.04259Z" id="id_103" style="fill: rgb(252, 208, 50);"></path><path class="cls-2" d="M64,45.3458A18.64638,18.64638,0,1,0,82.6542,64,18.67545,18.67545,0,0,0,64,45.3458Zm7.90619,29.87425c-2.34038-.885-4.49393-1.60287-4.49393-1.60287V71.60132l.16715-.12784a5.83465,5.83465,0,0,0,2.21254-3.69741l.02947-.21631h.16721a2.25312,2.25312,0,0,0,2.0847-1.3964,2.46075,2.46075,0,0,0,.30484-1.18982,2.36839,2.36839,0,0,0-.15737-.826,1.23616,1.23616,0,0,0-.4523-.72767l-.56052-.34415.13768-.60967a7.06476,7.06476,0,0,0-7.01131-8.51587h-.66867A7.05991,7.05991,0,0,0,56.65436,62.466l.13762.60967-.56046.34415a1.14861,1.14861,0,0,0-.45236.72767,2.16478,2.16478,0,0,0-.15737.826,2.4608,2.4608,0,0,0,.3049,1.18982,2.24962,2.24962,0,0,0,2.07486,1.3964h.16715l.02953.21631a5.83465,5.83465,0,0,0,2.21254,3.69741l.16715.12784v2.01586s-2.15354.71783-4.49393,1.60287a13.74237,13.74237,0,1,1,15.82217,0Z" id="id_104" style="fill: rgb(250, 207, 50);"></path></svg>