<svg xmlns="http://www.w3.org/2000/svg" xmlns:xlink="http://www.w3.org/1999/xlink" width="1080" zoomAndPan="magnify" viewBox="0 0 810 809.999993" height="1080" preserveAspectRatio="xMidYMid meet" version="1.0"><defs><clipPath id="e7d1cb6140"><path d="M 319 197 L 724.960938 197 L 724.960938 778.574219 L 319 778.574219 Z M 319 197 " clip-rule="nonzero"/></clipPath><clipPath id="9f8bc2693b"><path d="M 85.210938 262 L 442 262 L 442 778.574219 L 85.210938 778.574219 Z M 85.210938 262 " clip-rule="nonzero"/></clipPath><clipPath id="d44cb562f6"><path d="M 85.210938 31.574219 L 708 31.574219 L 708 455 L 85.210938 455 Z M 85.210938 31.574219 " clip-rule="nonzero"/></clipPath></defs><g clip-path="url(#e7d1cb6140)"><path fill="#b4ac88" d="M 707.792969 221.613281 C 710.183594 328.132812 721.238281 442.125 724.824219 548.5 C 633.683594 628.726562 538.960938 706.265625 441.542969 778.574219 C 391.492188 682.957031 336.507812 600.640625 319.921875 493.96875 C 314.695312 460.800781 390.445312 386.996094 403.445312 356.070312 C 411.214844 337.546875 422.269531 320.515625 435.269531 305.125 C 462.011719 273.453125 498.320312 248.203125 539.257812 241.929688 C 563.015625 238.34375 588.265625 240.882812 610.078125 230.726562 C 626.066406 223.253906 598.871094 207.417969 614.5625 199.203125 C 630.25 190.984375 677.761719 218.625 707.792969 221.613281 Z M 707.792969 221.613281 " fill-opacity="1" fill-rule="nonzero"/></g><g clip-path="url(#9f8bc2693b)"><path fill="#f7c696" d="M 398.511719 457.664062 C 415.097656 564.335938 429.441406 671.304688 441.542969 778.574219 C 337.105469 730.765625 226.691406 665.480469 118.070312 596.15625 C 101.1875 469.617188 95.808594 378.183594 85.347656 262.847656 C 209.210938 274.050781 326.648438 335.453125 397.914062 453.628906 C 398.214844 455.125 398.363281 456.320312 398.511719 457.664062 Z M 398.511719 457.664062 " fill-opacity="1" fill-rule="nonzero"/></g><path fill="#745f52" d="M 472.917969 299.898438 C 495.628906 274.199219 488.308594 283.164062 521.03125 273.902344 L 608.285156 297.359375 L 614.859375 365.183594 C 589.308594 387.746094 563.761719 410.304688 538.511719 433.160156 L 530.292969 359.808594 Z M 472.917969 299.898438 " fill-opacity="1" fill-rule="nonzero"/><g clip-path="url(#d44cb562f6)"><path fill="#ead4af" d="M 400.007812 454.675781 C 288.695312 402.234375 183.0625 337.695312 85.347656 262.847656 C 193.222656 181.722656 305.578125 98.804688 422.71875 31.574219 C 512.960938 80.578125 625.46875 160.207031 707.792969 221.613281 C 674.324219 245.066406 641.453125 270.765625 608.285156 297.359375 C 543.144531 293.023438 507.285156 298.105469 530.144531 359.957031 C 489.054688 392.226562 446.324219 424.644531 400.007812 454.675781 Z M 400.007812 454.675781 " fill-opacity="1" fill-rule="nonzero"/></g><path fill="#ca9a49" d="M 530.144531 359.808594 L 221.460938 162.597656 C 246.863281 144.519531 272.410156 126.742188 298.109375 109.414062 L 608.285156 297.359375 Z M 530.144531 359.808594 " fill-opacity="1" fill-rule="nonzero"/></svg>