<svg xmlns="http://www.w3.org/2000/svg" xmlns:xlink="http://www.w3.org/1999/xlink" width="1080" zoomAndPan="magnify" viewBox="0 0 810 809.999993" height="1080" preserveAspectRatio="xMidYMid meet" version="1.0"><path fill="#ff5b59" d="M 655.257812 73.289062 C 655.105469 70.261719 653.136719 67.628906 650.285156 66.609375 C 647.433594 65.59375 644.246094 66.394531 642.210938 68.644531 L 628.109375 84.230469 C 627.792969 83.871094 627.5 83.496094 627.140625 83.167969 C 621.359375 78.019531 615.339844 73.019531 609.242188 68.300781 C 604.328125 64.503906 597.269531 65.40625 593.464844 70.324219 C 589.667969 75.234375 590.574219 82.296875 595.484375 86.09375 C 601.171875 90.488281 606.785156 95.152344 612.164062 99.953125 C 612.488281 100.242188 612.847656 100.464844 613.191406 100.710938 L 599.671875 115.65625 C 597.613281 117.925781 597.152344 121.21875 598.488281 123.972656 C 599.753906 126.5625 602.378906 128.179688 605.226562 128.179688 C 605.402344 128.179688 605.589844 128.175781 605.769531 128.160156 L 650.574219 124.925781 C 654.644531 124.632812 657.730469 121.140625 657.519531 117.066406 Z M 655.257812 73.289062 " fill-opacity="1" fill-rule="nonzero"/><path fill="#ff5b59" d="M 202.628906 71.445312 C 197.335938 75.671875 192.144531 80.128906 187.113281 84.679688 L 172.601562 68.644531 C 170.5625 66.394531 167.382812 65.589844 164.523438 66.609375 C 161.675781 67.625 159.707031 70.257812 159.558594 73.285156 L 157.292969 117.066406 C 157.082031 121.136719 160.171875 124.632812 164.242188 124.925781 L 209.050781 128.160156 C 209.226562 128.175781 209.40625 128.179688 209.589844 128.179688 C 212.4375 128.179688 215.0625 126.558594 216.324219 123.972656 C 217.664062 121.21875 217.199219 117.925781 215.144531 115.65625 L 202.203125 101.355469 C 206.894531 97.113281 211.726562 92.960938 216.664062 89.023438 C 221.511719 85.148438 222.308594 78.070312 218.4375 73.21875 C 214.558594 68.367188 207.484375 67.574219 202.628906 71.445312 Z M 202.628906 71.445312 " fill-opacity="1" fill-rule="nonzero"/><path fill="#ff5b59" d="M 286.160156 22.90625 C 271.796875 28.621094 257.710938 35.421875 244.285156 43.121094 C 238.898438 46.214844 237.035156 53.082031 240.125 58.472656 C 242.203125 62.097656 245.992188 64.125 249.890625 64.125 C 251.785156 64.125 253.714844 63.644531 255.472656 62.632812 C 267.980469 55.457031 281.101562 49.125 294.476562 43.796875 C 300.25 41.5 303.0625 34.960938 300.765625 29.191406 C 298.464844 23.421875 291.921875 20.605469 286.160156 22.90625 Z M 286.160156 22.90625 " fill-opacity="1" fill-rule="nonzero"/><path fill="#ff5b59" d="M 380.1875 0.808594 C 364.753906 2.097656 349.296875 4.492188 334.246094 7.929688 C 328.191406 9.316406 324.40625 15.34375 325.789062 21.398438 C 326.984375 26.609375 331.613281 30.140625 336.738281 30.140625 C 337.570312 30.140625 338.414062 30.046875 339.253906 29.855469 C 353.277344 26.652344 367.675781 24.417969 382.054688 23.21875 C 388.246094 22.703125 392.84375 17.269531 392.324219 11.078125 C 391.816406 4.894531 386.355469 0.304688 380.1875 0.808594 Z M 380.1875 0.808594 " fill-opacity="1" fill-rule="nonzero"/><path fill="#ff5b59" d="M 476.585938 6.824219 C 461.484375 3.621094 445.992188 1.46875 430.53125 0.417969 C 424.285156 -0.03125 418.972656 4.683594 418.550781 10.875 C 418.128906 17.074219 422.8125 22.433594 429.007812 22.855469 C 443.414062 23.832031 457.851562 25.839844 471.917969 28.820312 C 472.707031 28.988281 473.492188 29.066406 474.261719 29.066406 C 479.460938 29.066406 484.132812 25.441406 485.253906 20.152344 C 486.542969 14.078125 482.660156 8.109375 476.585938 6.824219 Z M 476.585938 6.824219 " fill-opacity="1" fill-rule="nonzero"/><path fill="#ff5b59" d="M 567.101562 40.59375 C 553.550781 33.097656 539.359375 26.519531 524.914062 21.035156 C 519.101562 18.824219 512.613281 21.75 510.40625 27.550781 C 508.203125 33.355469 511.121094 39.847656 516.925781 42.054688 C 530.378906 47.164062 543.597656 53.292969 556.222656 60.273438 C 557.949219 61.226562 559.8125 61.679688 561.652344 61.679688 C 565.613281 61.679688 569.453125 59.585938 571.503906 55.875 C 574.503906 50.4375 572.539062 43.597656 567.101562 40.59375 Z M 567.101562 40.59375 " fill-opacity="1" fill-rule="nonzero"/><path fill="#ffbd59" d="M 705.308594 186.042969 L 571.199219 186.042969 C 561.496094 186.042969 552.132812 182.15625 545.527344 175.050781 C 511.804688 138.792969 463.707031 116.089844 410.285156 116.089844 C 356.859375 116.089844 308.765625 138.792969 275.039062 175.050781 C 268.433594 182.15625 259.070312 186.042969 249.363281 186.042969 L 105.566406 186.042969 C 57.839844 186.042969 21.765625 229.277344 30.328125 276.234375 L 93.660156 747.175781 C 100.289062 783.527344 131.953125 809.945312 168.90625 809.945312 L 652.984375 809.945312 C 690.59375 809.945312 722.621094 782.605469 728.519531 745.460938 L 780.84375 274.519531 C 788.21875 228.082031 752.332031 186.042969 705.308594 186.042969 Z M 705.308594 186.042969 " fill-opacity="1" fill-rule="nonzero"/><path fill="#ffde59" d="M 681.417969 369.140625 L 132.472656 370.003906 C 126.511719 370.039062 121.300781 372.773438 117.855469 377.046875 C 114.777344 380.871094 113.167969 385.929688 113.878906 391.292969 L 157.632812 727.058594 C 159.105469 738.371094 168.75 746.839844 180.15625 746.839844 L 641.339844 746.839844 C 652.941406 746.839844 662.683594 738.089844 663.929688 726.546875 L 700.128906 390.015625 C 701.363281 378.882812 692.628906 369.140625 681.417969 369.140625 Z M 681.417969 369.140625 " fill-opacity="1" fill-rule="nonzero"/><path fill="#ffffff" d="M 546.515625 300.023438 C 546.777344 304.558594 543.21875 308.382812 538.683594 308.382812 L 276.445312 308.382812 C 271.910156 308.382812 268.308594 304.558594 268.574219 300.023438 C 268.875 295.222656 269.394531 290.539062 270.148438 285.890625 C 280.90625 219.738281 338.332031 169.214844 407.566406 169.214844 C 476.796875 169.214844 534.183594 219.738281 544.941406 285.890625 C 545.6875 290.539062 546.21875 295.222656 546.515625 300.023438 Z M 546.515625 300.023438 " fill-opacity="1" fill-rule="nonzero"/><path fill="#ffbd59" d="M 399.257812 283.8125 L 347.019531 229.003906 C 344.832031 226.710938 344.921875 223.085938 347.214844 220.902344 C 349.300781 218.914062 352.492188 218.8125 354.695312 220.535156 L 414.363281 267.152344 C 419.269531 270.988281 420.140625 278.070312 416.304688 282.976562 C 412.472656 287.882812 405.386719 288.753906 400.480469 284.921875 C 400.054688 284.589844 399.621094 284.1875 399.257812 283.8125 Z M 399.257812 283.8125 " fill-opacity="1" fill-rule="nonzero"/><path fill="#ffde59" d="M 76.757812 298.957031 C 71.261719 298.957031 66.453125 294.921875 65.644531 289.324219 L 62.550781 267.984375 C 60.886719 256.53125 64.28125 244.9375 71.859375 236.183594 C 79.4375 227.429688 90.425781 222.410156 102 222.410156 L 134.535156 222.410156 C 140.746094 222.410156 145.78125 227.445312 145.78125 233.65625 C 145.78125 239.867188 140.746094 244.898438 134.535156 244.898438 L 102 244.898438 C 96.878906 244.898438 92.214844 247.03125 88.867188 250.902344 C 85.511719 254.773438 84.074219 259.695312 84.804688 264.761719 L 87.898438 286.097656 C 88.789062 292.242188 84.53125 297.945312 78.382812 298.835938 C 77.835938 298.917969 77.292969 298.957031 76.757812 298.957031 Z M 76.757812 298.957031 " fill-opacity="1" fill-rule="nonzero"/><path fill="#ffde59" d="M 87.648438 355.78125 C 82.171875 355.78125 77.371094 351.773438 76.542969 346.195312 L 74.007812 329.238281 C 73.089844 323.09375 77.328125 317.375 83.46875 316.453125 C 89.621094 315.542969 95.332031 319.773438 96.25 325.914062 L 98.785156 342.871094 C 99.703125 349.015625 95.46875 354.738281 89.324219 355.65625 C 88.757812 355.742188 88.199219 355.78125 87.648438 355.78125 Z M 87.648438 355.78125 " fill-opacity="1" fill-rule="nonzero"/></svg>