<svg xmlns="http://www.w3.org/2000/svg" xmlns:xlink="http://www.w3.org/1999/xlink" width="1080" zoomAndPan="magnify" viewBox="0 0 810 809.999993" height="1080" preserveAspectRatio="xMidYMid meet" version="1.0"><defs><clipPath id="8915b5860c"><path d="M 150.457031 509 L 220 509 L 220 578.78125 L 150.457031 578.78125 Z M 150.457031 509 " clip-rule="nonzero"/></clipPath><clipPath id="5733f88b15"><path d="M 559 509 L 629 509 L 629 578.78125 L 559 578.78125 Z M 559 509 " clip-rule="nonzero"/></clipPath><clipPath id="1f92ea9ae5"><path d="M 1 230.851562 L 779 230.851562 L 779 306 L 1 306 Z M 1 230.851562 " clip-rule="nonzero"/></clipPath></defs><path fill="#000000" d="M 173.734375 531.085938 C 169.488281 535.328125 167.816406 540.527344 170 542.707031 C 172.171875 544.878906 177.378906 543.210938 181.625 538.972656 C 185.867188 534.734375 187.535156 529.535156 185.355469 527.359375 C 183.179688 525.175781 177.976562 526.855469 173.734375 531.085938 " fill-opacity="1" fill-rule="nonzero"/><g clip-path="url(#8915b5860c)"><path fill="#000000" d="M 185.71875 567.777344 C 172.625 567.777344 161.96875 557.136719 161.96875 544.050781 C 161.96875 530.96875 172.625 520.320312 185.71875 520.320312 C 198.8125 520.320312 209.464844 530.96875 209.464844 544.050781 C 209.464844 557.136719 198.8125 567.777344 185.71875 567.777344 Z M 185.3125 509.859375 C 166.296875 509.859375 150.828125 525.324219 150.828125 544.316406 C 150.828125 563.320312 166.296875 578.773438 185.3125 578.773438 C 204.324219 578.773438 219.800781 563.320312 219.800781 544.316406 C 219.800781 525.324219 204.324219 509.859375 185.3125 509.859375 " fill-opacity="1" fill-rule="nonzero"/></g><path fill="#000000" d="M 106.519531 567.777344 C 93.425781 567.777344 82.769531 557.136719 82.769531 544.050781 C 82.769531 530.96875 93.425781 520.320312 106.519531 520.320312 C 119.613281 520.320312 130.269531 530.96875 130.269531 544.050781 C 130.269531 557.136719 119.613281 567.777344 106.519531 567.777344 Z M 106.519531 509.050781 C 87.507812 509.050781 72.035156 524.503906 72.035156 543.507812 C 72.035156 562.507812 87.507812 577.960938 106.519531 577.960938 C 125.535156 577.960938 141.003906 562.507812 141.003906 543.507812 C 141.003906 524.503906 125.535156 509.050781 106.519531 509.050781 " fill-opacity="1" fill-rule="nonzero"/><path fill="#000000" d="M 94.175781 531.085938 C 89.929688 535.328125 88.257812 540.527344 90.441406 542.707031 C 92.621094 544.878906 97.824219 543.210938 102.066406 538.972656 C 106.300781 534.734375 107.976562 529.535156 105.796875 527.359375 C 103.621094 525.175781 98.417969 526.855469 94.175781 531.085938 " fill-opacity="1" fill-rule="nonzero"/><path fill="#000000" d="M 251.238281 531.085938 C 246.996094 535.328125 245.324219 540.527344 247.5 542.707031 C 249.679688 544.878906 254.878906 543.210938 259.125 538.972656 C 263.367188 534.734375 265.039062 529.535156 262.863281 527.359375 C 260.683594 525.175781 255.484375 526.855469 251.238281 531.085938 " fill-opacity="1" fill-rule="nonzero"/><path fill="#000000" d="M 264.101562 567.777344 C 251.007812 567.777344 240.351562 557.136719 240.351562 544.050781 C 240.351562 530.96875 251.007812 520.320312 264.101562 520.320312 C 277.195312 520.320312 287.855469 530.96875 287.855469 544.050781 C 287.855469 557.136719 277.195312 567.777344 264.101562 567.777344 Z M 264.101562 509.050781 C 245.085938 509.050781 229.617188 524.503906 229.617188 543.507812 C 229.617188 562.507812 245.085938 577.960938 264.101562 577.960938 C 283.121094 577.960938 298.589844 562.507812 298.589844 543.507812 C 298.589844 524.503906 283.121094 509.050781 264.101562 509.050781 " fill-opacity="1" fill-rule="nonzero"/><g clip-path="url(#5733f88b15)"><path fill="#000000" d="M 593.972656 567.777344 C 580.875 567.777344 570.222656 557.136719 570.222656 544.050781 C 570.222656 530.96875 580.875 520.320312 593.972656 520.320312 C 607.066406 520.320312 617.71875 530.96875 617.71875 544.050781 C 617.71875 557.136719 607.066406 567.777344 593.972656 567.777344 Z M 593.5625 509.859375 C 574.550781 509.859375 559.074219 525.324219 559.074219 544.316406 C 559.074219 563.320312 574.550781 578.773438 593.5625 578.773438 C 612.578125 578.773438 628.046875 563.320312 628.046875 544.316406 C 628.046875 525.324219 612.578125 509.859375 593.5625 509.859375 " fill-opacity="1" fill-rule="nonzero"/></g><path fill="#000000" d="M 582.972656 530.5 C 578.738281 534.738281 577.058594 539.945312 579.242188 542.113281 C 581.417969 544.296875 586.621094 542.625 590.867188 538.386719 C 595.109375 534.144531 596.773438 528.945312 594.597656 526.769531 C 592.425781 524.59375 587.21875 526.265625 582.972656 530.5 " fill-opacity="1" fill-rule="nonzero"/><path fill="#000000" d="M 514.773438 567.777344 C 501.679688 567.777344 491.023438 557.136719 491.023438 544.050781 C 491.023438 530.96875 501.679688 520.320312 514.773438 520.320312 C 527.867188 520.320312 538.515625 530.96875 538.515625 544.050781 C 538.515625 557.136719 527.867188 567.777344 514.773438 567.777344 Z M 514.773438 509.050781 C 495.753906 509.050781 480.289062 524.503906 480.289062 543.507812 C 480.289062 562.507812 495.753906 577.960938 514.773438 577.960938 C 533.789062 577.960938 549.257812 562.507812 549.257812 543.507812 C 549.257812 524.503906 533.789062 509.050781 514.773438 509.050781 " fill-opacity="1" fill-rule="nonzero"/><path fill="#000000" d="M 503.414062 530.5 C 499.171875 534.738281 497.503906 539.945312 499.675781 542.113281 C 501.859375 544.296875 507.0625 542.625 511.308594 538.386719 C 515.550781 534.144531 517.222656 528.945312 515.046875 526.769531 C 512.859375 524.59375 507.660156 526.265625 503.414062 530.5 " fill-opacity="1" fill-rule="nonzero"/><path fill="#000000" d="M 660.480469 530.5 C 656.238281 534.738281 654.5625 539.945312 656.742188 542.113281 C 658.917969 544.296875 664.128906 542.625 668.363281 538.386719 C 672.609375 534.144531 674.28125 528.945312 672.105469 526.769531 C 669.925781 524.59375 664.722656 526.265625 660.480469 530.5 " fill-opacity="1" fill-rule="nonzero"/><path fill="#000000" d="M 672.355469 567.777344 C 659.261719 567.777344 648.605469 557.136719 648.605469 544.050781 C 648.605469 530.96875 659.261719 520.320312 672.355469 520.320312 C 685.449219 520.320312 696.101562 530.96875 696.101562 544.050781 C 696.101562 557.136719 685.449219 567.777344 672.355469 567.777344 Z M 672.355469 509.050781 C 653.339844 509.050781 637.871094 524.503906 637.871094 543.507812 C 637.871094 562.507812 653.339844 577.960938 672.355469 577.960938 C 691.375 577.960938 706.84375 562.507812 706.84375 543.507812 C 706.84375 524.503906 691.375 509.050781 672.355469 509.050781 " fill-opacity="1" fill-rule="nonzero"/><path fill="#000000" d="M 804.402344 467.996094 C 804.402344 469.773438 802.945312 471.222656 801.175781 471.222656 C 799.398438 471.222656 797.945312 469.773438 797.945312 467.996094 L 797.945312 463.300781 C 797.945312 461.53125 799.398438 460.074219 801.175781 460.074219 C 802.945312 460.074219 804.402344 461.53125 804.402344 463.300781 Z M 799.972656 452.855469 C 795.363281 452.855469 791.609375 456.597656 791.609375 461.210938 L 791.609375 463.867188 L 785.902344 463.867188 L 785.902344 489.53125 L 791.609375 489.523438 L 791.609375 492.210938 C 791.609375 496.8125 795.363281 500.554688 799.972656 500.554688 C 804.570312 500.554688 808.324219 496.8125 808.324219 492.210938 L 808.324219 461.210938 C 808.324219 456.597656 804.570312 452.855469 799.972656 452.855469 " fill-opacity="1" fill-rule="nonzero"/><path fill="#000000" d="M 41.796875 323.507812 C 44.222656 322.621094 46.9375 323.871094 47.828125 326.292969 L 83.839844 424.324219 C 84.726562 426.746094 83.46875 429.460938 81.046875 430.347656 C 78.621094 431.238281 75.90625 429.984375 75.015625 427.558594 L 39.011719 329.53125 C 38.113281 327.105469 39.375 324.398438 41.796875 323.507812 Z M 75.527344 336.515625 C 76.019531 335.800781 76.828125 335.367188 77.707031 335.367188 L 701.171875 335.367188 C 702.625 335.367188 703.808594 336.550781 703.808594 338.011719 L 703.808594 340.285156 C 703.808594 340.613281 703.753906 340.9375 703.636719 341.242188 L 700.371094 349.578125 C 699.980469 350.589844 699 351.253906 697.914062 351.253906 L 81.800781 351.253906 C 80.714844 351.253906 79.734375 350.585938 79.34375 349.570312 L 75.242188 338.964844 C 74.925781 338.144531 75.03125 337.234375 75.527344 336.515625 Z M 692.976562 367.523438 L 688.832031 378.128906 C 688.433594 379.144531 687.460938 379.808594 686.375 379.808594 L 92.457031 379.808594 C 91.367188 379.808594 90.386719 379.136719 89.992188 378.121094 L 85.898438 367.515625 C 85.574219 366.703125 85.679688 365.792969 86.175781 365.074219 C 86.667969 364.351562 87.488281 363.925781 88.355469 363.925781 L 690.511719 363.925781 C 691.394531 363.925781 692.207031 364.351562 692.699219 365.074219 C 693.1875 365.792969 693.292969 366.710938 692.976562 367.523438 Z M 681.878906 396.082031 L 677.734375 406.679688 C 677.34375 407.695312 676.363281 408.367188 675.269531 408.367188 L 103.558594 408.367188 C 102.464844 408.367188 101.484375 407.695312 101.09375 406.671875 L 96.988281 396.066406 C 96.675781 395.261719 96.785156 394.347656 97.277344 393.625 C 97.773438 392.910156 98.585938 392.476562 99.453125 392.476562 L 679.421875 392.476562 C 680.289062 392.476562 681.109375 392.910156 681.597656 393.632812 C 682.089844 394.347656 682.203125 395.269531 681.878906 396.082031 Z M 670.78125 424.632812 L 666.636719 435.238281 C 666.238281 436.253906 665.261719 436.917969 664.179688 436.917969 L 114.65625 436.917969 C 113.5625 436.917969 112.582031 436.246094 112.191406 435.230469 L 108.09375 424.625 C 107.773438 423.808594 107.882812 422.898438 108.375 422.175781 C 108.863281 421.464844 109.683594 421.03125 110.550781 421.03125 L 668.316406 421.03125 C 669.199219 421.03125 670.011719 421.464844 670.5 422.183594 C 670.996094 422.898438 671.097656 423.820312 670.78125 424.632812 Z M 77.503906 457.214844 C 77.886719 458.257812 78.875 458.941406 79.980469 458.941406 L 258.394531 458.128906 L 275.558594 478.40625 C 276.0625 479 276.796875 479.335938 277.574219 479.335938 L 525.792969 479.335938 C 526.472656 479.335938 527.132812 479.078125 527.621094 478.601562 L 548.082031 458.941406 L 699.707031 458.941406 C 700.820312 458.941406 701.816406 458.25 702.191406 457.207031 L 754.8125 312.238281 L 24.125 312.238281 L 77.503906 457.214844 " fill-opacity="1" fill-rule="nonzero"/><path fill="#000000" d="M 425.453125 524.761719 L 357.34375 524.761719 C 354.277344 524.761719 351.769531 522.257812 351.769531 519.195312 C 351.769531 516.121094 354.277344 513.617188 357.34375 513.617188 L 425.453125 513.617188 C 428.519531 513.617188 431.035156 516.121094 431.035156 519.195312 C 431.035156 522.257812 428.519531 524.761719 425.453125 524.761719 Z M 61.207031 481.792969 C 57.019531 484.570312 52.53125 485.171875 51.1875 483.140625 C 49.851562 481.121094 52.152344 477.230469 56.347656 474.460938 C 60.542969 471.683594 65.023438 471.082031 66.367188 473.109375 C 67.714844 475.132812 65.402344 479.023438 61.207031 481.792969 Z M 708.816406 459.601562 C 707.4375 463.421875 703.773438 465.988281 699.707031 465.988281 L 550.925781 465.988281 L 532.503906 483.6875 C 530.683594 485.421875 528.300781 486.382812 525.792969 486.382812 L 277.574219 486.382812 C 274.71875 486.382812 272.015625 485.128906 270.179688 482.953125 L 255.917969 466.113281 L 64.703125 466.113281 C 55.1875 466.113281 47.210938 472.515625 44.640625 481.203125 L 34.90625 481.203125 C 33.445312 481.203125 32.261719 482.386719 32.261719 483.847656 L 32.261719 484.003906 C 23.453125 485.632812 16.746094 493.34375 16.746094 502.605469 C 16.746094 511.875 23.453125 519.578125 32.261719 521.214844 L 32.261719 521.371094 C 32.261719 522.832031 33.445312 524.015625 34.90625 524.015625 L 43.695312 524.015625 L 43.695312 527.085938 C 43.695312 536.671875 50.199219 544.695312 59.007812 547.191406 C 59.226562 548.4375 60.261719 549.410156 61.566406 549.410156 L 65.457031 549.410156 C 65.179688 547.472656 64.988281 545.515625 64.988281 543.507812 C 64.988281 520.621094 83.621094 502.011719 106.519531 502.011719 C 125.003906 502.011719 140.703125 514.148438 146.066406 530.863281 C 151.675781 514.578125 167.128906 502.824219 185.3125 502.824219 C 203.492188 502.824219 218.945312 514.578125 224.5625 530.863281 C 229.925781 514.148438 245.617188 502.011719 264.101562 502.011719 C 287.007812 502.011719 305.632812 520.621094 305.632812 543.507812 C 305.632812 545.515625 305.441406 547.472656 305.164062 549.410156 L 309.054688 549.410156 C 310.511719 549.410156 311.695312 548.230469 311.695312 546.765625 L 311.695312 513.8125 L 320.777344 513.8125 C 326.40625 524.894531 337.800781 532.578125 351.0625 532.578125 L 427.8125 532.578125 C 441.082031 532.578125 452.46875 524.894531 458.097656 513.8125 L 467.179688 513.8125 L 467.179688 546.765625 C 467.179688 548.230469 468.363281 549.410156 469.820312 549.410156 L 473.710938 549.410156 C 473.433594 547.472656 473.242188 545.515625 473.242188 543.507812 C 473.242188 520.621094 491.875 502.011719 514.773438 502.011719 C 533.257812 502.011719 548.949219 514.148438 554.320312 530.863281 C 559.929688 514.578125 575.382812 502.824219 593.5625 502.824219 C 611.746094 502.824219 627.199219 514.578125 632.808594 530.863281 C 638.171875 514.148438 653.871094 502.011719 672.355469 502.011719 C 695.261719 502.011719 713.886719 520.621094 713.886719 543.507812 C 713.886719 545.515625 713.695312 547.472656 713.417969 549.410156 L 717.308594 549.410156 C 718.765625 549.410156 719.949219 548.230469 719.949219 546.765625 L 719.949219 520.53125 L 741.585938 495.050781 L 749.800781 495.050781 L 749.800781 458.765625 L 709.117188 458.765625 L 708.816406 459.601562 " fill-opacity="1" fill-rule="nonzero"/><path fill="#000000" d="M 776.511719 480.316406 C 776.511719 481.933594 775.191406 483.246094 773.574219 483.246094 C 771.960938 483.246094 770.640625 481.933594 770.640625 480.316406 L 770.640625 455.675781 C 770.640625 454.058594 771.960938 452.742188 773.574219 452.742188 C 775.191406 452.742188 776.511719 454.058594 776.511719 455.675781 Z M 778.738281 446.53125 L 759.140625 446.53125 C 757.683594 446.53125 756.5 447.714844 756.5 449.175781 L 756.5 503.011719 C 756.5 504.472656 757.683594 505.65625 759.140625 505.65625 L 778.738281 505.65625 C 780.195312 505.65625 781.378906 504.472656 781.378906 503.011719 L 781.378906 449.175781 C 781.378906 447.714844 780.195312 446.53125 778.738281 446.53125 " fill-opacity="1" fill-rule="nonzero"/><g clip-path="url(#1f92ea9ae5)"><path fill="#000000" d="M 22.375 273.96875 C 22.375 277.523438 19.46875 280.425781 15.917969 280.425781 C 12.367188 280.425781 9.460938 277.523438 9.460938 273.96875 L 9.460938 242.875 C 9.460938 239.328125 12.367188 236.425781 15.917969 236.425781 C 19.46875 236.425781 22.375 239.328125 22.375 242.875 Z M 778.957031 300.597656 L 778.957031 235.328125 C 778.957031 232.859375 776.949219 230.851562 774.484375 230.851562 L 6.15625 230.851562 C 3.683594 230.851562 1.675781 232.859375 1.675781 235.328125 L 1.675781 300.597656 C 1.675781 303.058594 3.683594 305.066406 6.15625 305.066406 L 774.484375 305.066406 C 776.949219 305.066406 778.957031 303.058594 778.957031 300.597656 " fill-opacity="1" fill-rule="nonzero"/></g></svg>