<svg xmlns="http://www.w3.org/2000/svg" xmlns:xlink="http://www.w3.org/1999/xlink" width="1080" zoomAndPan="magnify" viewBox="0 0 810 809.999993" height="1080" preserveAspectRatio="xMidYMid meet" version="1.0"><defs><clipPath id="9cbb77f919"><path d="M 645.878906 540 L 717.785156 540 L 717.785156 601.820312 L 645.878906 601.820312 Z M 645.878906 540 " clip-rule="nonzero"/></clipPath><clipPath id="c6cb364330"><path d="M 104 208.070312 L 719 208.070312 L 719 260 L 104 260 Z M 104 208.070312 " clip-rule="nonzero"/></clipPath><clipPath id="4adb10eb52"><path d="M 209.0625 540 L 282 540 L 282 601.820312 L 209.0625 601.820312 Z M 209.0625 540 " clip-rule="nonzero"/></clipPath><clipPath id="4d6a7dc417"><path d="M 92.214844 540 L 164.121094 540 L 164.121094 601.820312 L 92.214844 601.820312 Z M 92.214844 540 " clip-rule="nonzero"/></clipPath><clipPath id="ab02e992b4"><path d="M 528 540 L 600.9375 540 L 600.9375 601.820312 L 528 601.820312 Z M 528 540 " clip-rule="nonzero"/></clipPath></defs><g clip-path="url(#9cbb77f919)"><path fill="#000000" d="M 695.707031 557.609375 C 696.914062 560 697.632812 562.625 697.632812 565.5 C 697.632812 574.359375 690.441406 581.78125 681.578125 581.78125 C 675.125 581.78125 669.609375 577.953125 666.984375 572.6875 L 645.914062 572.6875 C 649.257812 589.203125 663.875 601.890625 681.578125 601.890625 C 701.460938 601.890625 717.746094 585.609375 717.746094 565.5 C 717.746094 555.6875 713.917969 546.828125 707.679688 540.355469 L 695.707031 557.609375 " fill-opacity="1" fill-rule="nonzero"/></g><path fill="#000000" d="M 53.699219 522.65625 L 756.3125 522.65625 L 756.3125 493.917969 L 53.699219 493.917969 L 53.707031 522.65625 " fill-opacity="1" fill-rule="nonzero"/><path fill="#000000" d="M 795.816406 497.28125 C 793.660156 498.71875 791.96875 499.671875 790.550781 500.621094 L 763.480469 500.621094 L 763.480469 515.46875 L 790.550781 515.46875 C 791.96875 516.417969 793.660156 517.371094 795.816406 518.808594 C 798.695312 520.734375 802.988281 523.375 809.460938 527.4375 L 809.460938 488.652344 C 802.988281 492.714844 798.695312 495.355469 795.816406 497.28125 " fill-opacity="1" fill-rule="nonzero"/><g clip-path="url(#c6cb364330)"><path fill="#000000" d="M 377.460938 208.070312 L 104.222656 259.539062 L 718.234375 259.539062 Z M 377.460938 208.070312 " fill-opacity="1" fill-rule="nonzero"/></g><path fill="#000000" d="M 739.535156 266.730469 L 70.464844 266.730469 L 70.460938 295.691406 L 739.53125 295.691406 L 739.53125 266.730469 " fill-opacity="1" fill-rule="nonzero"/><path fill="#000000" d="M 681.578125 565.5 L 706.261719 529.824219 L 540.304688 529.824219 L 565.203125 565.5 L 681.578125 565.5 " fill-opacity="1" fill-rule="nonzero"/><path fill="#000000" d="M 244.796875 565.5 L 269.695312 529.824219 L 103.746094 529.824219 L 128.652344 565.5 L 244.796875 565.5 " fill-opacity="1" fill-rule="nonzero"/><path fill="#000000" d="M 100.160156 337.109375 L 211.503906 477.152344 L 100.160156 477.152344 Z M 230.183594 312.449219 L 230.183594 464.714844 L 109.257812 312.449219 Z M 260.132812 312.449219 L 382.492188 312.449219 L 260.132812 469.746094 Z M 390.152344 477.152344 L 284.542969 477.152344 L 390.152344 341.421875 Z M 419.847656 340.460938 L 528.332031 477.152344 L 419.847656 477.152344 Z M 549.867188 312.449219 L 549.867188 468.058594 L 426.320312 312.449219 Z M 579.816406 312.449219 L 699.304688 312.449219 L 579.816406 466.152344 Z M 709.839844 337.828125 L 709.839844 477.152344 L 601.605469 477.152344 Z M 709.839844 486.730469 L 739.535156 486.730469 L 739.535156 302.867188 L 706.726562 302.875 L 70.460938 302.875 L 70.460938 486.738281 L 709.835938 486.738281 " fill-opacity="1" fill-rule="nonzero"/><path fill="#000000" d="M 14.1875 497.28125 C 11.316406 495.355469 7.007812 492.714844 0.539062 488.652344 L 0.539062 527.4375 C 7.007812 523.375 11.316406 520.734375 14.1875 518.808594 C 16.34375 517.371094 18.023438 516.417969 19.453125 515.46875 L 46.519531 515.46875 L 46.519531 500.621094 L 19.453125 500.621094 C 18.023438 499.671875 16.34375 498.71875 14.1875 497.28125 " fill-opacity="1" fill-rule="nonzero"/><g clip-path="url(#4adb10eb52)"><path fill="#000000" d="M 259.160156 557.609375 C 260.363281 560 261.082031 562.625 261.082031 565.5 C 261.082031 574.359375 253.894531 581.78125 244.796875 581.78125 C 238.558594 581.78125 233.058594 577.953125 230.433594 572.6875 L 209.347656 572.6875 C 212.710938 589.203125 227.324219 601.890625 244.796875 601.890625 C 264.914062 601.890625 281.199219 585.609375 281.199219 565.5 C 281.199219 555.6875 277.371094 546.828125 271.132812 540.355469 L 259.160156 557.609375 " fill-opacity="1" fill-rule="nonzero"/></g><g clip-path="url(#4d6a7dc417)"><path fill="#000000" d="M 128.652344 581.78125 C 119.554688 581.78125 112.371094 574.359375 112.371094 565.5 C 112.371094 562.625 113.085938 560 114.285156 557.609375 L 102.3125 540.355469 C 96.085938 546.828125 92.253906 555.6875 92.253906 565.5 C 92.253906 585.609375 108.535156 601.890625 128.652344 601.890625 C 146.136719 601.890625 160.742188 589.203125 164.09375 572.6875 L 143.019531 572.6875 C 140.386719 577.953125 134.882812 581.78125 128.652344 581.78125 " fill-opacity="1" fill-rule="nonzero"/></g><g clip-path="url(#ab02e992b4)"><path fill="#000000" d="M 565.203125 581.78125 C 556.105469 581.78125 548.917969 574.359375 548.917969 565.5 C 548.917969 562.625 549.636719 560 550.839844 557.609375 L 538.867188 540.355469 C 532.628906 546.828125 528.800781 555.6875 528.800781 565.5 C 528.800781 585.609375 545.085938 601.890625 565.203125 601.890625 C 582.691406 601.890625 597.289062 589.203125 600.652344 572.6875 L 579.816406 572.6875 C 576.941406 577.953125 571.441406 581.78125 565.203125 581.78125 " fill-opacity="1" fill-rule="nonzero"/></g></svg>