<svg version="1.1" id="Layer_1" xmlns="http://www.w3.org/2000/svg" xmlns:xlink="http://www.w3.org/1999/xlink" x="0px" y="0px" viewBox="0 0 33.5 34.1" enable-background="new 0 0 33.5 34.1" xml:space="preserve">
<g>
<path fill="#e7f24e" d="M31.3,18.1c0-8.1-6.5-14.6-14.6-14.6C8.7,3.5,2.2,10,2.2,18.1c0,4.3,1.8,8.1,4.7,10.8l-1.8,1.8
		c-0.5,0.5-0.5,1.3,0,1.8c0.5,0.5,1.3,0.5,1.8,0l2.1-2.1c2.3,1.4,4.9,2.3,7.8,2.3c2.9,0,5.5-0.8,7.8-2.3l2.1,2.1
		c0.5,0.5,1.3,0.5,1.8,0c0.5-0.5,0.5-1.3,0-1.8l-1.8-1.8C29.5,26.2,31.3,22.3,31.3,18.1z M16.7,29.3c-6.2,0-11.3-5-11.3-11.3
		c0-6.2,5-11.3,11.3-11.3c6.2,0,11.3,5,11.3,11.3C28,24.3,23,29.3,16.7,29.3z" id="id_101"></path>
<path fill="#82BFAB" d="M7.2,18.1c0,5.2,4.3,9.5,9.5,9.5c5.2,0,9.5-4.3,9.5-9.5c0-5.2-4.3-9.5-9.5-9.5C11.5,8.6,7.2,12.8,7.2,18.1z
		 M17.3,12.3v6l4.7,4.8c0.3,0.3,0.3,0.7,0,1c-0.3,0.3-0.7,0.3-1,0l-4.9-5c-0.1-0.1-0.2-0.3-0.2-0.5v-6.3c0-0.4,0.3-0.7,0.7-0.7
		C17,11.6,17.3,12,17.3,12.3z" id="id_102"></path>
<path fill="#AAD3C7" d="M5.5,18.1c0,6.2,5,11.3,11.3,11.3c6.2,0,11.3-5,11.3-11.3c0-6.2-5-11.3-11.3-11.3
		C10.5,6.8,5.5,11.8,5.5,18.1z M26.3,18.1c0,5.2-4.3,9.5-9.5,9.5c-5.2,0-9.5-4.3-9.5-9.5c0-5.2,4.3-9.5,9.5-9.5
		C22,8.6,26.3,12.8,26.3,18.1z" id="id_103"></path>
<path fill="#dde845" d="M16.6,11.6c-0.4,0-0.7,0.3-0.7,0.7v6.3c0,0.2,0.1,0.4,0.2,0.5l4.9,5c0.3,0.3,0.7,0.3,1,0
		c0.3-0.3,0.3-0.7,0-1l-4.7-4.8v-6C17.3,12,17,11.6,16.6,11.6z" id="id_104"></path>
<path fill="#e0eb46" d="M23.9,1.7c-0.7,0.7-0.7,1.7,0,2.4l5.9,5.9c0.7,0.7,1.7,0.7,2.4,0c0.7-0.7,0.7-1.7,0-2.4l-5.9-5.9
		C25.6,1.1,24.6,1.1,23.9,1.7z" id="id_105"></path>
<path fill="#e0eb4c" d="M7.2,1.7L1.3,7.6c-0.7,0.7-0.7,1.7,0,2.4C2,10.7,3,10.7,3.7,10l5.9-5.9c0.7-0.7,0.7-1.7,0-2.4
		C8.9,1.1,7.9,1.1,7.2,1.7z" id="id_106"></path>
</g>
</svg>