<svg version="1.1" id="Solid_Line" xmlns="http://www.w3.org/2000/svg" xmlns:xlink="http://www.w3.org/1999/xlink" x="0px" y="0px" viewBox="0 0 64 64" enable-background="new 0 0 64 64" xml:space="preserve">
<g>
<path d="M60,7.46c0.55,0,1-0.45,1-1V2c0-0.55-0.45-1-1-1h-4c-0.55,0-1,0.45-1,1v1.92l-4.35-3.68c-0.38-0.32-0.92-0.32-1.3,0l-13,11
		c-0.32,0.27-0.43,0.71-0.29,1.1C36.21,12.74,36.58,13,37,13h22v14h-9V16c0-0.55-0.45-1-1-1h-6c-0.55,0-1,0.45-1,1s0.45,1,1,1v1
		c-0.55,0-1,0.45-1,1v8h-1V16c0-0.55-0.45-1-1-1s-1,0.45-1,1v12c0,0.55,0.45,1,1,1h20c0.55,0,1-0.45,1-1V13h2
		c0.42,0,0.79-0.26,0.94-0.66c0.14-0.39,0.03-0.83-0.29-1.1L57,5.61V3h2v3.46C59,7.01,59.45,7.46,60,7.46z" id="id_101" style="fill: rgb(250, 239, 25);"></path>
<path d="M57,23c0.55,0,1-0.45,1-1v-6c0-0.55-0.45-1-1-1h-5c-0.55,0-1,0.45-1,1v6c0,0.55,0.45,1,1,1H57z M53,20h3v1h-3V20z" id="id_102" style="fill: rgb(252, 241, 25);"></path>
<path d="M13,25v-6.75c0-0.553-0.447-1-1-1s-1,0.447-1,1V25H9.204c-0.795,0-1.493,0.449-1.821,1.174
		c-0.328,0.724-0.208,1.545,0.342,2.172l5.216,5.509c0.364,0.415,0.889,0.663,1.439,0.682c0.021,0.001,0.043,0.001,0.064,0.001
		c0.528,0,1.042-0.213,1.44-0.612L21,28.414c0.574-0.574,0.744-1.43,0.434-2.18S20.397,25,19.586,25H18V15h13c1.103,0,2-0.897,2-2
		v-3c0-1.103-0.897-2-2-2H13c-1.103,0-2,0.897-2,2v4.875c0,0.553,0.447,1,1,1s1-0.447,1-1V10h18v3H18c-1.103,0-2,0.897-2,2v10
		c0,1.103,0.897,2,2,2l1.561,0.026l-5.142,5.481L9.204,27H11C12.103,27,13,26.103,13,25z" id="id_103" style="fill: rgb(247, 27, 56);"></path>
<path d="M32,54v3c0,1.103,0.897,2,2,2h18c1.103,0,2-0.897,2-2V42h1.796c0.795,0,1.493-0.449,1.821-1.174
		c0.328-0.724,0.208-1.545-0.345-2.175l-5.25-5.505c-0.363-0.415-0.888-0.664-1.438-0.683c-0.555-0.027-1.092,0.194-1.51,0.614
		L44,38.586c-0.574,0.574-0.744,1.43-0.434,2.18S44.603,42,45.414,42H47v2.625c0,0.553,0.447,1,1,1s1-0.447,1-1V42
		c0-1.103-0.897-2-2-2l-1.558-0.029l5.104-5.476L55.796,40H54c-1.103,0-2,0.897-2,2v15H34v-3h13c1.103,0,2-0.897,2-2v-4.188
		c0-0.553-0.447-1-1-1s-1,0.447-1,1V52H34C32.897,52,32,52.897,32,54z" id="id_104" style="fill: rgb(31, 242, 112);"></path>
<path d="M2,64h24c1.1,0,2-0.9,2-2V40c0-1.1-0.9-2-2-2H2c-1.1,0-2,0.9-2,2v22C0,63.1,0.9,64,2,64z M2,40h8v4c0,0.55,0.45,1,1,1h6
		c0.55,0,1-0.45,1-1v-4h8v22H2V40z" id="id_105" style="fill: rgb(235, 242, 31);"></path>
<path d="M8,59H4c-0.553,0-1,0.447-1,1s0.447,1,1,1h4c0.553,0,1-0.447,1-1S8.553,59,8,59z" id="id_106" style="fill: rgb(233, 240, 31);"></path>
<path d="M8,56H4c-0.553,0-1,0.447-1,1s0.447,1,1,1h4c0.553,0,1-0.447,1-1S8.553,56,8,56z" id="id_107" style="fill: rgb(235, 242, 34);"></path>
<path d="M24,55h-4c-0.55,0-1,0.45-1,1v4c0,0.55,0.45,1,1,1h4c0.55,0,1-0.45,1-1v-4C25,55.45,24.55,55,24,55z" id="id_108" style="fill: rgb(233, 240, 34);"></path>
</g>
</svg>