<svg id="Layer_x0020_1" xmlns="http://www.w3.org/2000/svg" width="3000" height="3000" viewBox="0 0 3000 3000">
<circle id="Ellipse_21" data-name="Ellipse 21" cx="1500" cy="1500" r="1500" fill="#dbc44f"></circle>
<path id="Path_157" data-name="Path 157" d="M1659.94,932.81a28.97,28.97,0,0,1,28.97,28.97v20.37a28.97,28.97,0,0,1-57.94,0V961.78A28.97,28.97,0,0,1,1659.94,932.81Zm-88.71,49.34a28.97,28.97,0,1,1-57.94,0V961.78a28.97,28.97,0,0,1,57.94,0Zm-117.68-20.37v20.37a28.97,28.97,0,1,1-57.94,0V961.78a28.97,28.97,0,1,1,57.94,0Zm-7.38-73.63H971.26a803.257,803.257,0,0,0-260.73,328.92c108.7-71.29,251.73-58.88,270.28-56.92H1717.8a28.97,28.97,0,0,1,28.97,28.97v133.61l140.59-73.83c.18-.09.36-.19.54-.28l270.26-141.94c.1-.06.19-.11.29-.17.42-.23.84-.45,1.26-.65l193.61-101.69L1775.63,670.65V859.18a28.97,28.97,0,0,1-28.97,28.97H1446.15ZM1306.9,932.8a28.97,28.97,0,0,1,28.97,28.97v20.37a28.97,28.97,0,0,1-57.94,0V961.77A28.97,28.97,0,0,1,1306.9,932.8Zm-117.68,0a28.97,28.97,0,0,1,28.97,28.97v20.37a28.97,28.97,0,0,1-57.94,0V961.77A28.97,28.97,0,0,1,1189.22,932.8Zm-117.68,0a28.97,28.97,0,0,1,28.97,28.97v20.37a28.97,28.97,0,1,1-57.94,0V961.77A28.97,28.97,0,0,1,1071.54,932.8Z" fill="#eef1f2" fill-rule="evenodd"></path>
<path id="Path_158" data-name="Path 158" d="M2160.3,1170.85l-227.03,119.23q9.015,52.56,14.16,108.35,4.755,52.08,5.84,104.63h292.41a791.631,791.631,0,0,0-85.38-332.22Z" fill="#050505" fill-rule="evenodd"></path>
<path id="Path_159" data-name="Path 159" d="M2245.67,1561H1953.26c-2.4,120.55-19.43,234.85-48.11,337.8a652.649,652.649,0,0,1,126.93,177.97C2158.81,1940.53,2238.58,1760.02,2245.67,1561Z" fill="#250e1e" fill-rule="evenodd"></path>
<path id="Path_160" data-name="Path 160" d="M1856.89,1855.3c22.78-90.53,36.28-189.83,38.42-294.3H1475.14v148.91a647.289,647.289,0,0,1,334.54,110.34q24.405,16.47,47.21,35.06Z" fill="#250e1e" fill-rule="evenodd"></path>
<path id="Path_161" data-name="Path 161" d="M1777.31,1868.22a589.507,589.507,0,0,0-302.17-100.31v561.44c109.67-12.69,209.45-96.86,284.31-226.5,31.62-54.75,58.7-117.45,80.19-186.26a595.446,595.446,0,0,0-62.33-48.36Z" fill="#250e1e" fill-rule="evenodd"></path>
<path id="Path_162" data-name="Path 162" d="M1885.57,1962.03c-21.19,62.03-46.81,119.06-76.11,169.79-39.18,67.84-85.03,124.63-135.86,167.44a798.912,798.912,0,0,0,314.9-179.09,592.705,592.705,0,0,0-102.94-158.13Z" fill="#250e1e" fill-rule="evenodd"></path>
<path id="Path_163" data-name="Path 163" d="M1417.2,2329.35V1767.91a591.318,591.318,0,0,0-364.51,148.67c21.49,68.81,48.57,131.52,80.19,186.26,74.86,129.64,174.64,213.81,284.31,226.5Z" fill="#250e1e" fill-rule="evenodd"></path>
<path id="Path_164" data-name="Path 164" d="M1082.66,1820.25a647.287,647.287,0,0,1,334.54-110.34V1561H997.03c2.14,104.47,15.65,203.77,38.42,294.3q22.77-18.555,47.21-35.06Z" fill="#250e1e" fill-rule="evenodd"></path>
<path id="Path_165" data-name="Path 165" d="M1475.14,1503.06h420.2q-.975-51.3-5.41-99.42-3.945-43.26-10.57-85.25l-148.09,77.78v.07a28.965,28.965,0,0,1-42.43-25.64v-63.69a649.631,649.631,0,0,1-213.69,46.2v149.94Z" fill="#250e1e" fill-rule="evenodd"></path>
<path id="Path_166" data-name="Path 166" d="M1417.2,1503.06V1353.12a648.8,648.8,0,0,1-368.65-135.02h-15.68a1273.851,1273.851,0,0,0-25.62,141.46,1383.689,1383.689,0,0,0-10.24,143.5Z" fill="#250e1e" fill-rule="evenodd"></path>
<path id="Path_167" data-name="Path 167" d="M1250.27,1262.79a589.974,589.974,0,0,0,166.93,32.34V1218.1H1152.39a589.165,589.165,0,0,0,97.87,44.69Z" fill="#250e1e" fill-rule="evenodd"></path>
<path id="Path_168" data-name="Path 168" d="M1475.14,1218.1v77.03a587.861,587.861,0,0,0,213.7-51.02V1218.1h-213.7Z" fill="#250e1e" fill-rule="evenodd"></path>
<path id="Path_169" data-name="Path 169" d="M1475.14,830.22H1660.9c-25.87-25.27-53.24-46.17-81.79-62.11-33.14-18.5-67.98-30.29-103.97-34.43Z" fill="#250e1e" fill-rule="evenodd"></path>
<path id="Path_170" data-name="Path 170" d="M1675.09,765.15a521.538,521.538,0,0,1,42.62,40.7V779.17Q1696.68,771.58,1675.09,765.15Z" fill="#250e1e" fill-rule="evenodd"></path>
<path id="Path_171" data-name="Path 171" d="M1417.2,830.22V733.68c-36.02,4.13-70.87,15.92-104.01,34.43-28.55,15.94-55.92,36.84-81.78,62.11Z" fill="#250e1e" fill-rule="evenodd"></path>
<path id="Path_172" data-name="Path 172" d="M1153.03,830.22a541.732,541.732,0,0,1,63.98-64.9,795.019,795.019,0,0,0-155.2,64.9h91.21Z" fill="#250e1e" fill-rule="evenodd"></path>
<path id="Path_173" data-name="Path 173" d="M973.64,1217.58c-26.21-2.66-241.57-19.42-308.55,140.65a801.669,801.669,0,0,0-18.42,144.83H939.06a1442.412,1442.412,0,0,1,10.7-150.52,1325.613,1325.613,0,0,1,23.87-134.96Z" fill="#250e1e" fill-rule="evenodd"></path>
<path id="Path_174" data-name="Path 174" d="M939.07,1561H646.66c7.08,199.02,86.86,379.53,213.59,515.77A652.68,652.68,0,0,1,987.19,1898.8C958.5,1795.86,941.47,1681.55,939.07,1561Z" fill="#250e1e" fill-rule="evenodd"></path>
<path id="Path_175" data-name="Path 175" d="M1006.76,1962.03a593.262,593.262,0,0,0-102.94,158.13,799.054,799.054,0,0,0,314.9,179.09c-50.83-42.81-96.68-99.59-135.85-167.44-29.3-50.73-54.92-107.76-76.11-169.79Z" fill="#250e1e" fill-rule="evenodd"></path>
</svg>