<?xml version="1.0" encoding="UTF-8" standalone="no"?> <svg xmlns="http://www.w3.org/2000/svg" viewBox="0 0 64 64"><g id="flat"><polygon points="50 9 14 9 6 23 6 61 58 61 58 23 50 9" style="fill:#ffdf59"/><rect x="6" y="23" width="52" height="38" style="fill:#ffc200"/><polygon points="58 23 6 23 14 9 50 9 58 23" style="fill:#ffdc64"/><rect x="11" y="37" width="16" height="12" style="fill:#ff9300"/><rect x="14" y="40" width="10" height="2" style="fill:#ffc200"/><rect x="14" y="44" width="3" height="2" style="fill:#ffc200"/><rect x="19" y="44" width="5" height="2" style="fill:#ffc200"/><polygon points="38 55 36 57 34 55.285 32 57.063 30 55 28 57 26 55 26 61 38 61 38 55" style="fill:#ff9300"/><path d="M32,35,19,19h7A16,16,0,0,1,42,3h8L44.269,5.866A11.34,11.34,0,0,0,38,16.009V19h7Z" style="fill:#23a24d"/><path d="M40.293,40.293l-3,3,1.414,1.414L40,43.414V49h2V43.414l1.293,1.293,1.414-1.414-3-3A1,1,0,0,0,40.293,40.293Z" style="fill:#ff9300"/><path d="M54.707,43.293l-3-3a1,1,0,0,0-1.414,0l-3,3,1.414,1.414L50,43.414V49h2V43.414l1.293,1.293Z" style="fill:#ff9300"/></g></svg>
