<?xml version="1.0" encoding="UTF-8" standalone="no"?> <svg xmlns="http://www.w3.org/2000/svg" viewBox="0 0 64 64"><g id="Fill_Outline" data-name="Fill Outline"><rect x="20.5" y="53" width="34.5" height="4" style="fill:#c3922e"/><rect x="22" y="49" width="33" height="4" style="fill:#b27e2b"/><rect x="22" y="45" width="33" height="4" style="fill:#c3922e"/><rect x="22" y="41" width="33" height="4" style="fill:#b27e2b"/><rect x="26" y="37" width="33" height="4" style="fill:#c3922e"/><rect x="22" y="33" width="33" height="4" style="fill:#b27e2b"/><rect x="22" y="29" width="33" height="4" style="fill:#c3922e"/><rect x="19" y="25" width="33" height="4" style="fill:#b27e2b"/><rect x="25" y="21" width="33" height="4" style="fill:#c3922e"/><rect x="22" y="17" width="33" height="4" style="fill:#b27e2b"/><rect x="25" y="13" width="33" height="4" style="fill:#c3922e"/><rect x="28" y="9" width="33" height="4" style="fill:#b27e2b"/><rect x="50" y="53" width="2" height="4" style="fill:#fbcc34"/><rect x="45" y="53" width="2" height="4" style="fill:#fbcc34"/><rect x="40" y="53" width="2" height="4" style="fill:#fbcc34"/><rect x="35" y="53" width="2" height="4" style="fill:#fbcc34"/><rect x="30" y="53" width="2" height="4" style="fill:#fbcc34"/><rect x="25" y="53" width="2" height="4" style="fill:#fbcc34"/><rect x="52" y="49" width="2" height="4" style="fill:#e2c675"/><rect x="47" y="49" width="2" height="4" style="fill:#e2c675"/><rect x="42" y="49" width="2" height="4" style="fill:#e2c675"/><rect x="37" y="49" width="2" height="4" style="fill:#e2c675"/><rect x="32" y="49" width="2" height="4" style="fill:#e2c675"/><rect x="52" y="41" width="2" height="4" style="fill:#e2c675"/><rect x="47" y="41" width="2" height="4" style="fill:#e2c675"/><rect x="42" y="41" width="2" height="4" style="fill:#e2c675"/><rect x="37" y="41" width="2" height="4" style="fill:#e2c675"/><rect x="32" y="41" width="2" height="4" style="fill:#e2c675"/><rect x="52" y="33" width="2" height="4" style="fill:#e2c675"/><rect x="47" y="33" width="2" height="4" style="fill:#e2c675"/><rect x="42" y="33" width="2" height="4" style="fill:#e2c675"/><rect x="37" y="33" width="2" height="4" style="fill:#e2c675"/><rect x="32" y="33" width="2" height="4" style="fill:#e2c675"/><rect x="52" y="25" width="2" height="4" style="fill:#e2c675"/><rect x="47" y="25" width="2" height="4" style="fill:#e2c675"/><rect x="42" y="25" width="2" height="4" style="fill:#e2c675"/><rect x="37" y="25" width="2" height="4" style="fill:#e2c675"/><rect x="32" y="25" width="2" height="4" style="fill:#e2c675"/><rect x="52" y="17" width="2" height="4" style="fill:#e2c675"/><rect x="47" y="17" width="2" height="4" style="fill:#e2c675"/><rect x="42" y="17" width="2" height="4" style="fill:#e2c675"/><rect x="37" y="17" width="2" height="4" style="fill:#e2c675"/><rect x="32" y="17" width="2" height="4" style="fill:#e2c675"/><rect x="27" y="17" width="2" height="4" style="fill:#e2c675"/><rect x="52" y="9" width="2" height="4" style="fill:#e2c675"/><rect x="57" y="9" width="2" height="4" style="fill:#e2c675"/><rect x="47" y="9" width="2" height="4" style="fill:#e2c675"/><rect x="42" y="9" width="2" height="4" style="fill:#e2c675"/><rect x="37" y="9" width="2" height="4" style="fill:#e2c675"/><rect x="32" y="9" width="2" height="4" style="fill:#e2c675"/><rect x="28" y="9" width="1" height="4" style="fill:#e2c675"/><rect x="28" y="49" width="2" height="4" style="fill:#e2c675"/><rect x="50" y="45" width="2" height="4" style="fill:#fbcc34"/><rect x="45" y="45" width="2" height="4" style="fill:#fbcc34"/><rect x="40" y="45" width="2" height="4" style="fill:#fbcc34"/><rect x="35" y="45" width="2" height="4" style="fill:#fbcc34"/><rect x="30" y="45" width="2" height="4" style="fill:#fbcc34"/><rect x="25" y="45" width="2" height="4" style="fill:#fbcc34"/><rect x="50" y="37" width="2" height="4" style="fill:#fbcc34"/><rect x="55" y="37" width="2" height="4" style="fill:#fbcc34"/><rect x="45" y="37" width="2" height="4" style="fill:#fbcc34"/><rect x="40" y="37" width="2" height="4" style="fill:#fbcc34"/><rect x="35" y="37" width="2" height="4" style="fill:#fbcc34"/><rect x="30" y="37" width="2" height="4" style="fill:#fbcc34"/><rect x="25" y="37" width="2" height="4" style="fill:#fbcc34"/><rect x="50" y="29" width="2" height="4" style="fill:#fbcc34"/><rect x="45" y="29" width="2" height="4" style="fill:#fbcc34"/><rect x="40" y="29" width="2" height="4" style="fill:#fbcc34"/><rect x="35" y="29" width="2" height="4" style="fill:#fbcc34"/><rect x="30" y="29" width="2" height="4" style="fill:#fbcc34"/><rect x="25" y="29" width="2" height="4" style="fill:#fbcc34"/><rect x="50" y="21" width="2" height="4" style="fill:#fbcc34"/><rect x="45" y="21" width="2" height="4" style="fill:#fbcc34"/><rect x="40" y="21" width="2" height="4" style="fill:#fbcc34"/><rect x="35" y="21" width="2" height="4" style="fill:#fbcc34"/><rect x="30" y="21" width="2" height="4" style="fill:#fbcc34"/><rect x="25" y="21" width="2" height="4" style="fill:#fbcc34"/><rect x="50" y="13" width="2" height="4" style="fill:#fbcc34"/><rect x="54" y="13" width="2" height="4" style="fill:#fbcc34"/><rect x="45" y="13" width="2" height="4" style="fill:#fbcc34"/><rect x="40" y="13" width="2" height="4" style="fill:#fbcc34"/><rect x="35" y="13" width="2" height="4" style="fill:#fbcc34"/><rect x="30" y="13" width="2" height="4" style="fill:#fbcc34"/><rect x="25" y="13" width="2" height="4" style="fill:#fbcc34"/><circle cx="20" cy="40" r="17" style="fill:#cda349"/><circle cx="20" cy="40" r="13" style="fill:#e2c675"/></g><g id="Outline"><path d="M20,54A14,14,0,1,0,6,40,14.015,14.015,0,0,0,20,54Zm0-26A12,12,0,1,1,8,40,12.013,12.013,0,0,1,20,28Z"/><path d="M19,47.879V50h2V47.879A4.5,4.5,0,0,0,20,39a2.5,2.5,0,1,1,2.5-2.5V37h2v-.5A4.5,4.5,0,0,0,21,32.121V30H19v2.121A4.5,4.5,0,0,0,20,41a2.5,2.5,0,1,1-2.5,2.5V43h-2v.5A4.5,4.5,0,0,0,19,47.879Z"/><path d="M20,58c.338,0,.667-.032,1-.051V58H56V42h4V36H56V28H53V26h6V20H56V18h3V14h3V8H27v4H24v4H21v6h3v.464A17.994,17.994,0,1,0,20,58Zm34-2H28.237c.047-.024.09-.055.137-.08.323-.17.633-.36.944-.549.2-.123.41-.239.609-.37.3-.2.588-.42.876-.638.165-.124.339-.233.5-.363H54Zm0-4H33.4c.082-.092.157-.192.237-.286.151-.175.3-.351.442-.532s.3-.389.439-.586.3-.391.437-.6H54Zm0-4H36.114c.128-.256.244-.514.36-.773.057-.131.116-.261.17-.394.116-.277.228-.554.328-.833H54Zm0-4H37.546c.007-.032.009-.066.016-.1a18.009,18.009,0,0,0,.32-1.9H54Zm4-6v2H38c0-.494-.03-1-.076-1.505-.014-.165-.024-.331-.042-.495H58Zm-4-2H37.537q-.115-.511-.262-1.014c-.078-.269-.165-.533-.255-.8-.022-.063-.039-.127-.062-.19H54Zm0-6v2H36.112c-.035-.07-.075-.136-.11-.2-.113-.219-.227-.435-.348-.649q-.294-.521-.62-1.019c-.028-.041-.05-.086-.078-.127H54Zm-3-2H33.4c-.129-.145-.27-.276-.4-.416s-.284-.3-.432-.446c-.291-.285-.594-.556-.9-.82-.093-.079-.18-.164-.274-.241-.03-.025-.058-.053-.088-.077H51ZM29,10H60v2H29Zm-3,4H57v2H26Zm-3,6V18H54v2H23Zm3,3.028V22H57v2H28.242c-.39-.2-.788-.386-1.19-.558-.074-.032-.15-.058-.225-.089C26.553,23.24,26.278,23.126,26,23.028ZM20,24a15.948,15.948,0,0,1,4.732.715c.15.047.3.11.446.162.338.116.676.23,1,.367.2.086.4.19.6.284.268.126.539.245.8.385.161.087.313.189.47.281.284.166.569.329.841.511.157.105.3.223.455.333.257.186.515.369.76.569.185.151.357.316.535.475.194.174.393.343.578.526.212.209.411.434.612.656.141.154.287.3.422.463.1.123.2.252.3.378q.265.337.515.689c.116.165.232.331.342.5.13.2.25.4.37.609.226.385.438.779.632,1.184.063.131.129.26.189.392.1.232.2.466.292.7.058.147.11.3.163.446.157.44.3.887.413,1.34.029.11.059.22.086.332.068.288.131.577.183.869l0,.031c.084.474.146.93.189,1.376.042.469.072.943.072,1.423,0,.29-.028.574-.044.86l0,.081a17.28,17.28,0,0,1-.217,1.886c-.006.028-.008.058-.014.086a14.946,14.946,0,0,1-.4,1.663c-.016.052-.025.107-.041.159-.009.03-.022.06-.031.09-.126.4-.272.781-.426,1.162-.063.152-.125.3-.192.454-.107.243-.226.478-.345.714q-.273.54-.59,1.067c-.067.111-.132.222-.2.33-.174.274-.357.54-.545.8-.091.126-.185.251-.28.374-.169.221-.34.44-.519.65s-.354.4-.537.591c-.123.131-.242.268-.37.395q-.491.486-1.023.93c-.083.069-.17.132-.254.2q-.417.333-.856.64c-.129.09-.26.177-.392.263q-.405.264-.826.5c-.133.075-.263.155-.4.226q-.573.3-1.17.565c-.174.075-.353.138-.53.206-.24.094-.482.185-.728.267q-.341.114-.687.212c-.2.057-.4.1-.6.154a15.975,15.975,0,0,1-1.905.351l-.386.045C21,55.97,20.505,56,20,56a16,16,0,0,1,0-32Z"/></g></svg>