<svg xmlns="http://www.w3.org/2000/svg" viewBox="0 0 64 64"><g id="flat"><rect x="13" y="18" width="2" height="14" style="fill:#fbb540" id="id_115"></rect><rect x="51" y="18" width="2" height="14" style="fill:#fbb540" id="id_116"></rect><path d="M32,35A20.009,20.009,0,0,0,12.918,61H51.082A20.009,20.009,0,0,0,32,35Z" style="fill: rgb(32, 214, 44);" id="id_117"></path><path d="M32,34A21.009,21.009,0,0,0,11.964,61.3a1,1,0,0,0,.954.7H51.082a1,1,0,0,0,.954-.7A21.009,21.009,0,0,0,32,34ZM26.425,54.575A54.4,54.4,0,0,0,32,54.87q2.5,0,5-.234c.007,1.786-.058,3.575-.175,5.364H26.589C26.473,58.191,26.414,56.382,26.425,54.575Zm.042-2.009q.1-3.113.446-6.208a20.6,20.6,0,0,0,9.61.143q.336,3.057.428,6.133A52.4,52.4,0,0,1,26.467,52.566Zm-1.5-6.794c-.256,2.177-.415,4.362-.49,6.553A52.983,52.983,0,0,1,13.792,49.6a18.987,18.987,0,0,1,4.494-7.715A20.765,20.765,0,0,0,24.962,45.772ZM19.74,40.509a18.961,18.961,0,0,1,6.805-3.7c-.542,2.3-.97,4.613-1.305,6.94A18.8,18.8,0,0,1,19.74,40.509Zm18.737,5.467a20.806,20.806,0,0,0,7.238-4.09A19,19,0,0,1,50.208,49.6a52.976,52.976,0,0,1-11.263,2.8Q38.842,49.176,38.477,45.976Zm-.252-2.035c-.343-2.446-.808-4.877-1.38-7.291a18.951,18.951,0,0,1,7.416,3.86A18.807,18.807,0,0,1,38.225,43.941Zm-3.542-7.729a77.513,77.513,0,0,1,1.6,8.287,18.6,18.6,0,0,1-9.115-.136c.339-2.43.78-4.848,1.35-7.244l.194-.815a17.513,17.513,0,0,1,5.966-.092ZM13,55a18.919,18.919,0,0,1,.328-3.438,55.02,55.02,0,0,0,11.1,2.775q-.024,2.829.156,5.663H13.667A19.017,19.017,0,0,1,13,55Zm37.333,5H38.825c.119-1.867.187-3.732.175-5.595a54.957,54.957,0,0,0,11.672-2.843A18.7,18.7,0,0,1,50.333,60Z" style="fill: rgb(214, 44, 32);" id="id_118"></path><circle cx="14" cy="34" r="3" style="fill:#fbb540" id="id_119"></circle><path d="M23,14.829,6,15,2.947,9.027l2-.036,3.018,1.991,13-.135a2,2,0,0,1,2.018,1.982Z" style="fill:#dbdbdb" id="id_120"></path><polygon points="12.964 10.919 16.964 10.883 12.91 4.919 8.911 4.955 12.964 10.919" style="fill:#4799cf" id="id_121"></polygon><path d="M61,14.829,44,15,40.947,9.027l2-.036,3.018,1.991,13-.135a2,2,0,0,1,2.018,1.982Z" style="fill:#dbdbdb" id="id_122"></path><polygon points="50.964 10.919 54.964 10.883 50.91 4.919 46.911 4.955 50.964 10.919" style="fill:#4799cf" id="id_123"></polygon><rect x="26" y="12" width="2" height="2" style="fill:#fbb540" id="id_124"></rect><rect x="30" y="12" width="2" height="2" style="fill:#fbb540" id="id_125"></rect><rect x="34" y="12" width="2" height="2" style="fill:#fbb540" id="id_126"></rect><rect x="38" y="12" width="2" height="2" style="fill:#fbb540" id="id_127"></rect><circle cx="52" cy="34" r="3" style="fill:#fbb540" id="id_128"></circle></g></svg>