<svg xmlns="http://www.w3.org/2000/svg" xmlns:xlink="http://www.w3.org/1999/xlink" width="1080" zoomAndPan="magnify" viewBox="0 0 810 809.999993" height="1080" preserveAspectRatio="xMidYMid meet" version="1.0"><defs><clipPath id="3f4d7503f6"><path d="M 3 265.78125 L 807 265.78125 L 807 544.03125 L 3 544.03125 Z M 3 265.78125 " clip-rule="nonzero"/></clipPath></defs><g clip-path="url(#3f4d7503f6)"><path fill="#ffde59" d="M 612.640625 465.03125 L 548.050781 465.03125 C 547.683594 352.675781 546.863281 332.359375 557.546875 303.332031 C 588.339844 303.332031 625.199219 308.679688 661.714844 336.929688 L 612.640625 336.929688 Z M 593.671875 327.65625 C 586.140625 325.113281 578.5 324.1875 572.136719 324.1875 C 572.113281 324.207031 572.113281 324.207031 572.113281 324.230469 C 572.027344 334.214844 571.488281 342.085938 578.4375 342.085938 C 583.894531 342.085938 585.535156 342.085938 593.433594 342.085938 C 598.679688 342.085938 596.953125 335.484375 593.671875 327.65625 Z M 679.539062 352.632812 C 701.402344 352.632812 701.960938 354.335938 708.890625 365.722656 L 702.308594 365.699219 C 709.039062 377.882812 722.117188 403.308594 722.117188 403.308594 C 781.160156 412.714844 784.808594 433.652344 784.808594 433.652344 L 791.820312 464.707031 C 796.722656 470.335938 800.066406 476.828125 802.398438 484.074219 L 770.847656 484.074219 C 762.171875 472.472656 748.382812 464.902344 732.820312 464.902344 C 706.6875 464.902344 685.386719 486.164062 685.386719 512.304688 C 685.386719 513.8125 685.300781 517.242188 685.300781 517.242188 L 628.308594 517.285156 L 628.308594 352.585938 L 679.519531 352.585938 C 679.539062 352.609375 679.539062 352.609375 679.539062 352.632812 Z M 648.660156 391.773438 C 648.660156 406.351562 679.777344 404.710938 702.328125 410.382812 L 682.34375 372.429688 L 648.660156 372.363281 C 648.660156 372.363281 648.660156 386.1875 648.660156 391.773438 Z M 778.507812 499.710938 C 779.628906 503.742188 780.277344 507.925781 780.277344 512.304688 C 780.277344 513.984375 780.167969 515.601562 779.996094 517.21875 L 806.667969 517.21875 C 806.667969 510.964844 806.367188 505.25 805.699219 499.710938 Z M 3.882812 265.765625 L 531.996094 265.765625 L 531.996094 464.792969 L 3.882812 464.792969 Z M 701.054688 512.304688 C 701.054688 529.859375 715.277344 544.070312 732.820312 544.070312 C 750.386719 544.070312 764.609375 529.859375 764.609375 512.304688 C 764.609375 494.769531 750.386719 480.558594 732.820312 480.558594 C 715.277344 480.558594 701.054688 494.769531 701.054688 512.304688 Z M 732.820312 525.285156 C 725.65625 525.285156 719.851562 519.464844 719.851562 512.304688 C 719.851562 505.144531 725.65625 499.34375 732.820312 499.34375 C 739.988281 499.34375 745.8125 505.144531 745.8125 512.304688 C 745.8125 519.464844 739.988281 525.285156 732.820312 525.285156 Z M 452.773438 512.304688 C 452.773438 529.859375 466.996094 544.070312 484.5625 544.070312 C 502.085938 544.070312 516.328125 529.859375 516.328125 512.304688 C 516.328125 494.769531 502.085938 480.558594 484.5625 480.558594 C 466.996094 480.558594 452.773438 494.769531 452.773438 512.304688 Z M 484.5625 525.285156 C 477.398438 525.285156 471.570312 519.464844 471.570312 512.304688 C 471.570312 505.144531 477.398438 499.34375 484.5625 499.34375 C 491.707031 499.34375 497.53125 505.144531 497.53125 512.304688 C 497.53125 519.464844 491.707031 525.285156 484.5625 525.285156 Z M 349.597656 512.304688 C 349.597656 529.859375 363.820312 544.070312 381.363281 544.070312 C 398.929688 544.070312 413.152344 529.859375 413.152344 512.304688 C 413.152344 494.769531 398.929688 480.558594 381.363281 480.558594 C 363.820312 480.558594 349.597656 494.769531 349.597656 512.304688 Z M 381.363281 525.285156 C 374.222656 525.285156 368.394531 519.464844 368.394531 512.304688 C 368.394531 505.144531 374.222656 499.34375 381.363281 499.34375 C 388.53125 499.34375 394.378906 505.144531 394.378906 512.304688 C 394.378906 519.464844 388.53125 525.285156 381.363281 525.285156 Z M 144.953125 512.304688 C 144.953125 529.859375 159.175781 544.070312 176.71875 544.070312 C 194.242188 544.070312 208.484375 529.859375 208.484375 512.304688 C 208.484375 494.769531 194.242188 480.558594 176.71875 480.558594 C 159.175781 480.558594 144.953125 494.769531 144.953125 512.304688 Z M 176.71875 525.285156 C 169.554688 525.285156 163.726562 519.464844 163.726562 512.304688 C 163.726562 505.144531 169.554688 499.34375 176.71875 499.34375 C 183.863281 499.34375 189.6875 505.144531 189.6875 512.304688 C 189.6875 519.464844 183.863281 525.285156 176.71875 525.285156 Z M 437.386719 517.285156 C 437.214844 515.644531 437.128906 514.007812 437.128906 512.304688 C 437.128906 500.140625 441.769531 489.054688 449.320312 480.667969 L 416.585938 480.667969 C 424.160156 489.054688 428.820312 500.140625 428.820312 512.304688 C 428.820312 514.007812 428.710938 515.644531 428.539062 517.285156 Z M 129.265625 512.304688 C 129.265625 500.140625 133.925781 489.054688 141.5 480.667969 L 110.296875 480.667969 C 117.847656 489.054688 122.507812 500.140625 122.507812 512.304688 C 122.507812 514.007812 122.402344 515.644531 122.25 517.285156 L 129.542969 517.285156 C 129.371094 515.644531 129.265625 514.007812 129.265625 512.304688 Z M 531.714844 517.265625 L 612.640625 517.285156 L 612.640625 480.667969 L 519.78125 480.667969 C 527.335938 489.054688 531.996094 500.140625 531.996094 512.304688 C 531.996094 513.984375 531.886719 515.625 531.714844 517.265625 Z M 223.871094 517.285156 L 239.5625 517.285156 C 239.691406 515.644531 239.796875 514.007812 239.796875 512.304688 C 239.796875 500.765625 236.625 489.984375 231.1875 480.667969 L 211.9375 480.667969 C 219.492188 489.054688 224.152344 500.140625 224.152344 512.304688 C 224.152344 514.007812 224.046875 515.644531 223.871094 517.285156 Z M 326.917969 480.667969 C 321.480469 489.984375 318.308594 500.765625 318.308594 512.304688 C 318.308594 514.007812 318.414062 515.644531 318.546875 517.285156 L 334.234375 517.285156 C 334.039062 515.644531 333.953125 514.007812 333.953125 512.304688 C 333.953125 500.140625 338.59375 489.054688 346.167969 480.667969 Z M 11.976562 512.304688 C 11.976562 514.007812 12.105469 515.644531 12.234375 517.285156 L 27.921875 517.285156 C 27.730469 515.644531 27.644531 514.007812 27.644531 512.304688 C 27.644531 500.140625 32.28125 489.054688 39.855469 480.667969 L 20.585938 480.667969 C 15.148438 489.984375 11.976562 500.765625 11.976562 512.304688 Z M 43.289062 512.304688 C 43.289062 529.859375 57.53125 544.070312 75.078125 544.070312 C 92.621094 544.070312 106.84375 529.859375 106.84375 512.304688 C 106.84375 494.769531 92.621094 480.558594 75.078125 480.558594 C 57.53125 480.558594 43.289062 494.769531 43.289062 512.304688 Z M 75.078125 525.285156 C 67.910156 525.285156 62.085938 519.464844 62.085938 512.304688 C 62.085938 505.144531 67.910156 499.34375 75.078125 499.34375 C 82.242188 499.34375 88.066406 505.144531 88.066406 512.304688 C 88.066406 519.464844 82.242188 525.285156 75.078125 525.285156 " fill-opacity="1" fill-rule="nonzero"/></g></svg>