<svg xmlns="http://www.w3.org/2000/svg" width="211" height="56" viewBox="0 0 211 56"><defs><style>.cls-1{fill:#ffcb1e;}</style></defs><title>Asset 63</title><g id="Layer_2" data-name="Layer 2"><g id="Icons"><g id="Trucks"><g id="Truck_2" data-name="Truck 2"><path class="cls-1" d="M206.5,26.5l-21-4-2-8h-2l-2-3-23-1v6h-7v26h16v-2h18v3h5a13.62,13.62,0,0,1,9-7,15,15,0,0,1,10,4v-11A2.86,2.86,0,0,0,206.5,26.5Zm-24.27-3H170.11a.61.61,0,0,1-.61-.61V17.11a.61.61,0,0,1,.61-.61H181a.67.67,0,0,1,.65.52l1.26,5.67A.67.67,0,0,1,182.23,23.5Z" id="id_164" style="fill: rgb(54, 155, 199);"></path><rect class="cls-1" x="1" y="1" width="144" height="37" rx="1.81" ry="1.81" id="id_165" style="fill: rgb(62, 159, 201);"></rect><path d="M199,43.5a4.5,4.5,0,1,0,4.5,4.5A4.51,4.51,0,0,0,199,43.5Zm0,8a3.5,3.5,0,1,1,3.5-3.5A3.5,3.5,0,0,1,199,51.5Z" id="id_166" style="fill: rgb(8, 8, 8);"></path><path d="M132,43.5a4.5,4.5,0,1,0,4.5,4.5A4.51,4.51,0,0,0,132,43.5Zm0,8a3.5,3.5,0,1,1,3.5-3.5A3.5,3.5,0,0,1,132,51.5Z" id="id_167" style="fill: rgb(25, 26, 26);"></path><path d="M112,43.5a4.5,4.5,0,1,0,4.5,4.5A4.51,4.51,0,0,0,112,43.5Zm0,8a3.5,3.5,0,1,1,3.5-3.5A3.5,3.5,0,0,1,112,51.5Z" id="id_168"></path><path d="M182.1,16.91A1.16,1.16,0,0,0,181,16H170.11A1.11,1.11,0,0,0,169,17.11v5.78A1.11,1.11,0,0,0,170.11,24h12.12a1.16,1.16,0,0,0,.91-.44,1.18,1.18,0,0,0,.23-1Zm.26,6a.18.18,0,0,1-.13.06H170.11a.11.11,0,0,1-.11-.11V17.11a.11.11,0,0,1,.11-.11H181a.17.17,0,0,1,.16.13l1.26,5.67A.15.15,0,0,1,182.36,22.94Z" id="id_169"></path><path d="M17,52.5A4.5,4.5,0,1,1,21.5,48,4.51,4.51,0,0,1,17,52.5Zm0-8A3.5,3.5,0,1,0,20.5,48,3.5,3.5,0,0,0,17,44.5Z" id="id_170"></path><path d="M37,52.5A4.5,4.5,0,1,1,41.5,48,4.51,4.51,0,0,1,37,52.5Zm0-8A3.5,3.5,0,1,0,40.5,48,3.5,3.5,0,0,0,37,44.5Z" id="id_171"></path><path d="M209.59,41H209V30.09a5.7,5.7,0,0,0-4.92-5.63l-16.9-2.31a.51.51,0,0,1-.43-.4l-1.52-6.81A2.46,2.46,0,0,0,182.81,13h-1.27l-1.29-1.92a2.48,2.48,0,0,0-2-1.11L167,9.45V3a1,1,0,0,0-2,0V9.36l-6.42-.29A2.46,2.46,0,0,0,156,11.53V15h-5.09A1.91,1.91,0,0,0,149,16.91V42H137.28A8,8,0,0,0,135,40.59V39h8.19A2.81,2.81,0,0,0,146,36.19V2.81A2.81,2.81,0,0,0,143.19,0H2.81A2.81,2.81,0,0,0,0,2.81V36.19A2.81,2.81,0,0,0,2.81,39H4V52a1,1,0,0,0,2,0V49H9.07a8,8,0,0,0,15.86,0h4.14a8,8,0,0,0,15.86,0h5.29A2.79,2.79,0,0,0,53,46.22V39h56v1.59A8,8,0,0,0,106.72,42h-6.31A1.41,1.41,0,0,0,99,43.41v4.18A1.41,1.41,0,0,0,100.41,49h3.66a8,8,0,0,0,15.86,0h4.14a8,8,0,0,0,15.86,0h51.14a8,8,0,0,0,15.86,0h2.66A1.41,1.41,0,0,0,211,47.59V42.41A1.41,1.41,0,0,0,209.59,41ZM17,54a6,6,0,1,1,6-6A6,6,0,0,1,17,54Zm20,0a6,6,0,1,1,6-6A6,6,0,0,1,37,54Zm14-7.78a.78.78,0,0,1-.78.78H44.93a8,8,0,0,0-15.86,0H24.93A8,8,0,0,0,9.07,47H6V39H51ZM2.81,37A.81.81,0,0,1,2,36.19V2.81A.81.81,0,0,1,2.81,2H143.19a.81.81,0,0,1,.81.81V36.19a.81.81,0,0,1-.81.81ZM133,39v1a8.26,8.26,0,0,0-1-.07,8,8,0,0,0-5.28,2h-9.44A8,8,0,0,0,112,40a8.24,8.24,0,0,0-1,.07L111,39Zm-28.93,8H101V44h4.08A7.9,7.9,0,0,0,104.07,47ZM112,54a6,6,0,1,1,6-6A6,6,0,0,1,112,54Zm12.07-7h-4.14a7.9,7.9,0,0,0-1-3h6.16A7.9,7.9,0,0,0,124.07,47ZM132,54a6,6,0,1,1,6-6A6,6,0,0,1,132,54Zm33-7H139.93a7.9,7.9,0,0,0-1-3H165Zm0-5H151V17h5.22A1.78,1.78,0,0,0,158,15.22V11.53a.46.46,0,0,1,.14-.33.43.43,0,0,1,.35-.13l6.51.29Zm18,5H167V41h15.65a.35.35,0,0,1,.35.35Zm-.35-8H167V11.46l11.2.5a.51.51,0,0,1,.39.23l1.35,2a1.75,1.75,0,0,0,1.46.78h1.41a.47.47,0,0,1,.47.37l1.51,6.81a2.52,2.52,0,0,0,2.12,1.95l16.9,2.31A3.69,3.69,0,0,1,207,30.09v9A12,12,0,0,0,188.61,42H185v-.65A2.36,2.36,0,0,0,182.65,39ZM199,54a6,6,0,1,1,6-6A6,6,0,0,1,199,54Zm10-7h-2.07a8,8,0,0,0-15.86,0H185V44h2.69c-.08.25-.17.5-.24.75a1,1,0,0,0,1,1.25h0a1,1,0,0,0,.95-.75,10,10,0,0,1,17.87-2.87h0a1.44,1.44,0,0,0,1.18.62H209Z" id="id_172" style="fill: rgb(213, 219, 222);"></path></g></g></g></g></svg>