<svg xmlns="http://www.w3.org/2000/svg" xmlns:xlink="http://www.w3.org/1999/xlink" width="1080" zoomAndPan="magnify" viewBox="0 0 810 809.999993" height="1080" preserveAspectRatio="xMidYMid meet" version="1.0"><defs><clipPath id="661e947464"><path d="M 16 200.980469 L 794 200.980469 L 794 455 L 16 455 Z M 16 200.980469 " clip-rule="nonzero"/></clipPath><clipPath id="8d9e4f7bd9"><path d="M 4.265625 524 L 89.171875 524 L 89.171875 608.980469 L 4.265625 608.980469 Z M 4.265625 524 " clip-rule="nonzero"/></clipPath><clipPath id="be80925a20"><path d="M 159.796875 524 L 244.707031 524 L 244.707031 608.980469 L 159.796875 608.980469 Z M 159.796875 524 " clip-rule="nonzero"/></clipPath><clipPath id="29c2d0706c"><path d="M 565.292969 524 L 650.203125 524 L 650.203125 608.980469 L 565.292969 608.980469 Z M 565.292969 524 " clip-rule="nonzero"/></clipPath><clipPath id="dd933bbc51"><path d="M 720.828125 524 L 805.734375 524 L 805.734375 608.980469 L 720.828125 608.980469 Z M 720.828125 524 " clip-rule="nonzero"/></clipPath></defs><path fill="#545454" d="M 24.898438 454.886719 L 24.898438 233.617188 C 24.898438 219.867188 36.429688 208.914062 50.179688 208.914062 L 759.820312 208.914062 C 773.570312 208.914062 785.101562 219.867188 785.101562 233.617188 L 785.101562 454.886719 L 24.898438 454.886719 " fill-opacity="1" fill-rule="nonzero"/><path fill="#737373" d="M 8.234375 504.875 L 801.765625 504.875 L 801.765625 454.886719 L 8.234375 454.886719 L 8.234375 504.875 " fill-opacity="1" fill-rule="nonzero"/><path fill="#737373" d="M 89.171875 400.480469 C 89.171875 408.179688 82.929688 414.421875 75.226562 414.421875 L 74.550781 414.421875 C 66.847656 414.421875 60.605469 408.179688 60.605469 400.480469 L 60.605469 261.738281 C 60.605469 254.035156 66.847656 247.792969 74.550781 247.792969 L 75.226562 247.792969 C 82.929688 247.792969 89.171875 254.035156 89.171875 261.738281 L 89.171875 400.480469 " fill-opacity="1" fill-rule="nonzero"/><path fill="#737373" d="M 149.480469 400.480469 C 149.480469 408.179688 143.238281 414.421875 135.535156 414.421875 L 134.859375 414.421875 C 127.15625 414.421875 120.914062 408.179688 120.914062 400.480469 L 120.914062 261.738281 C 120.914062 254.035156 127.15625 247.792969 134.859375 247.792969 L 135.535156 247.792969 C 143.238281 247.792969 149.480469 254.035156 149.480469 261.738281 L 149.480469 400.480469 " fill-opacity="1" fill-rule="nonzero"/><path fill="#737373" d="M 209.789062 400.480469 C 209.789062 408.179688 203.546875 414.421875 195.84375 414.421875 L 195.167969 414.421875 C 187.464844 414.421875 181.222656 408.179688 181.222656 400.480469 L 181.222656 261.738281 C 181.222656 254.035156 187.464844 247.792969 195.167969 247.792969 L 195.84375 247.792969 C 203.546875 247.792969 209.789062 254.035156 209.789062 261.738281 L 209.789062 400.480469 " fill-opacity="1" fill-rule="nonzero"/><path fill="#737373" d="M 269.304688 400.480469 C 269.304688 408.179688 263.0625 414.421875 255.359375 414.421875 L 254.683594 414.421875 C 246.980469 414.421875 240.738281 408.179688 240.738281 400.480469 L 240.738281 261.738281 C 240.738281 254.035156 246.980469 247.792969 254.683594 247.792969 L 255.359375 247.792969 C 263.0625 247.792969 269.304688 254.035156 269.304688 261.738281 L 269.304688 400.480469 " fill-opacity="1" fill-rule="nonzero"/><path fill="#737373" d="M 329.613281 400.480469 C 329.613281 408.179688 323.371094 414.421875 315.667969 414.421875 L 314.992188 414.421875 C 307.289062 414.421875 301.046875 408.179688 301.046875 400.480469 L 301.046875 261.738281 C 301.046875 254.035156 307.289062 247.792969 314.992188 247.792969 L 315.667969 247.792969 C 323.371094 247.792969 329.613281 254.035156 329.613281 261.738281 L 329.613281 400.480469 " fill-opacity="1" fill-rule="nonzero"/><path fill="#737373" d="M 389.128906 400.480469 C 389.128906 408.179688 382.886719 414.421875 375.183594 414.421875 L 374.507812 414.421875 C 366.804688 414.421875 360.5625 408.179688 360.5625 400.480469 L 360.5625 261.738281 C 360.5625 254.035156 366.804688 247.792969 374.507812 247.792969 L 375.183594 247.792969 C 382.886719 247.792969 389.128906 254.035156 389.128906 261.738281 L 389.128906 400.480469 " fill-opacity="1" fill-rule="nonzero"/><path fill="#737373" d="M 449.4375 400.480469 C 449.4375 408.179688 443.195312 414.421875 435.492188 414.421875 L 434.816406 414.421875 C 427.113281 414.421875 420.871094 408.179688 420.871094 400.480469 L 420.871094 261.738281 C 420.871094 254.035156 427.113281 247.792969 434.816406 247.792969 L 435.492188 247.792969 C 443.195312 247.792969 449.4375 254.035156 449.4375 261.738281 L 449.4375 400.480469 " fill-opacity="1" fill-rule="nonzero"/><path fill="#737373" d="M 509.746094 400.480469 C 509.746094 408.179688 503.503906 414.421875 495.800781 414.421875 L 495.125 414.421875 C 487.421875 414.421875 481.179688 408.179688 481.179688 400.480469 L 481.179688 261.738281 C 481.179688 254.035156 487.421875 247.792969 495.125 247.792969 L 495.800781 247.792969 C 503.503906 247.792969 509.746094 254.035156 509.746094 261.738281 L 509.746094 400.480469 " fill-opacity="1" fill-rule="nonzero"/><path fill="#737373" d="M 569.261719 400.480469 C 569.261719 408.179688 563.019531 414.421875 555.316406 414.421875 L 554.640625 414.421875 C 546.9375 414.421875 540.695312 408.179688 540.695312 400.480469 L 540.695312 261.738281 C 540.695312 254.035156 546.9375 247.792969 554.640625 247.792969 L 555.316406 247.792969 C 563.019531 247.792969 569.261719 254.035156 569.261719 261.738281 L 569.261719 400.480469 " fill-opacity="1" fill-rule="nonzero"/><path fill="#737373" d="M 629.570312 400.480469 C 629.570312 408.179688 623.328125 414.421875 615.625 414.421875 L 614.949219 414.421875 C 607.246094 414.421875 601.003906 408.179688 601.003906 400.480469 L 601.003906 261.738281 C 601.003906 254.035156 607.246094 247.792969 614.949219 247.792969 L 615.625 247.792969 C 623.328125 247.792969 629.570312 254.035156 629.570312 261.738281 L 629.570312 400.480469 " fill-opacity="1" fill-rule="nonzero"/><path fill="#737373" d="M 689.878906 400.480469 C 689.878906 408.179688 683.636719 414.421875 675.933594 414.421875 L 675.257812 414.421875 C 667.554688 414.421875 661.3125 408.179688 661.3125 400.480469 L 661.3125 261.738281 C 661.3125 254.035156 667.554688 247.792969 675.257812 247.792969 L 675.933594 247.792969 C 683.636719 247.792969 689.878906 254.035156 689.878906 261.738281 L 689.878906 400.480469 " fill-opacity="1" fill-rule="nonzero"/><path fill="#737373" d="M 749.394531 400.480469 C 749.394531 408.179688 743.152344 414.421875 735.449219 414.421875 L 734.773438 414.421875 C 727.070312 414.421875 720.828125 408.179688 720.828125 400.480469 L 720.828125 261.738281 C 720.828125 254.035156 727.070312 247.792969 734.773438 247.792969 L 735.449219 247.792969 C 743.152344 247.792969 749.394531 254.035156 749.394531 261.738281 L 749.394531 400.480469 " fill-opacity="1" fill-rule="nonzero"/><path fill="#545454" d="M 73.617188 545.238281 C 85.511719 559.976562 83.207031 581.574219 68.460938 593.472656 C 53.71875 605.371094 32.121094 603.0625 20.222656 588.320312 C 8.324219 573.574219 10.632812 551.976562 25.375 540.082031 C 40.121094 528.1875 61.71875 530.492188 73.617188 545.238281 " fill-opacity="1" fill-rule="nonzero"/><path fill="#545454" d="M 228.769531 545.238281 C 240.667969 559.976562 238.359375 581.574219 223.617188 593.472656 C 208.875 605.371094 187.273438 603.0625 175.378906 588.320312 C 163.476562 573.574219 165.785156 551.976562 180.53125 540.082031 C 195.273438 528.1875 216.875 530.492188 228.769531 545.238281 " fill-opacity="1" fill-rule="nonzero"/><path fill="#545454" d="M 140.753906 504.875 L 140.753906 568.769531 C 140.753906 577.582031 133.378906 585.015625 124.566406 585.015625 L 124.242188 585.015625 C 115.429688 585.015625 108.21875 577.582031 108.21875 568.769531 L 108.21875 504.875 L 140.753906 504.875 " fill-opacity="1" fill-rule="nonzero"/><path fill="#545454" d="M 634.621094 545.238281 C 646.519531 559.976562 644.214844 581.574219 629.46875 593.472656 C 614.726562 605.371094 593.125 603.0625 581.230469 588.320312 C 569.332031 573.574219 571.640625 551.976562 586.382812 540.082031 C 601.125 528.1875 622.726562 530.492188 634.621094 545.238281 " fill-opacity="1" fill-rule="nonzero"/><path fill="#545454" d="M 789.78125 545.238281 C 801.679688 559.976562 799.371094 581.574219 784.625 593.472656 C 769.878906 605.371094 748.285156 603.0625 736.382812 588.320312 C 724.488281 573.574219 726.792969 551.976562 741.539062 540.082031 C 756.28125 528.1875 777.878906 530.492188 789.78125 545.238281 " fill-opacity="1" fill-rule="nonzero"/><path fill="#545454" d="M 701.78125 504.875 L 701.78125 568.769531 C 701.78125 577.582031 694.386719 585.015625 685.574219 585.015625 L 685.25 585.015625 C 676.4375 585.015625 669.246094 577.582031 669.246094 568.769531 L 669.246094 504.875 L 701.78125 504.875 " fill-opacity="1" fill-rule="nonzero"/><path fill="#000000" d="M 769.230469 485.039062 L 724 485.039062 C 721.371094 485.039062 719.238281 482.90625 719.238281 480.277344 C 719.238281 477.648438 721.371094 475.515625 724 475.515625 L 769.230469 475.515625 C 771.859375 475.515625 773.992188 477.648438 773.992188 480.277344 C 773.992188 482.90625 771.859375 485.039062 769.230469 485.039062 " fill-opacity="1" fill-rule="nonzero"/><path fill="#000000" d="M 685.910156 485.039062 L 32.039062 485.039062 C 29.410156 485.039062 27.277344 482.90625 27.277344 480.277344 C 27.277344 477.648438 29.410156 475.515625 32.039062 475.515625 L 685.910156 475.515625 C 688.539062 475.515625 690.671875 477.648438 690.671875 480.277344 C 690.671875 482.90625 688.539062 485.039062 685.910156 485.039062 " fill-opacity="1" fill-rule="nonzero"/><path fill="#000000" d="M 63.726562 572.867188 C 63.4375 572.867188 63.144531 572.835938 62.851562 572.78125 C 60.265625 572.304688 58.558594 569.820312 59.039062 567.234375 C 59.5625 564.417969 58.832031 561.53125 57.039062 559.308594 C 55.9375 557.945312 54.496094 556.902344 52.871094 556.300781 C 50.40625 555.378906 49.15625 552.636719 50.078125 550.171875 C 50.996094 547.707031 53.734375 546.457031 56.203125 547.375 C 59.429688 548.582031 62.277344 550.640625 64.449219 553.328125 C 67.988281 557.722656 69.429688 563.421875 68.402344 568.972656 C 67.972656 571.261719 65.976562 572.867188 63.726562 572.867188 " fill-opacity="1" fill-rule="nonzero"/><path fill="#000000" d="M 218.878906 572.867188 C 218.589844 572.867188 218.296875 572.835938 218 572.78125 C 215.417969 572.300781 213.710938 569.816406 214.191406 567.230469 C 214.714844 564.417969 213.988281 561.53125 212.191406 559.308594 C 211.09375 557.945312 209.652344 556.902344 208.027344 556.300781 C 205.5625 555.378906 204.308594 552.636719 205.230469 550.171875 C 206.152344 547.707031 208.894531 546.457031 211.355469 547.375 C 214.578125 548.582031 217.429688 550.640625 219.605469 553.328125 C 223.148438 557.722656 224.585938 563.421875 223.554688 568.972656 C 223.128906 571.261719 221.125 572.867188 218.878906 572.867188 " fill-opacity="1" fill-rule="nonzero"/><path fill="#000000" d="M 624.730469 572.867188 C 624.441406 572.867188 624.152344 572.835938 623.855469 572.78125 C 621.273438 572.304688 619.5625 569.820312 620.042969 567.234375 C 620.570312 564.417969 619.839844 561.53125 618.046875 559.308594 C 616.945312 557.945312 615.503906 556.902344 613.878906 556.300781 C 611.414062 555.378906 610.164062 552.636719 611.082031 550.171875 C 612.003906 547.707031 614.742188 546.457031 617.210938 547.375 C 620.433594 548.582031 623.285156 550.640625 625.457031 553.328125 C 629 557.722656 630.441406 563.421875 629.410156 568.972656 C 628.980469 571.261719 626.980469 572.867188 624.730469 572.867188 " fill-opacity="1" fill-rule="nonzero"/><path fill="#000000" d="M 779.886719 572.867188 C 779.597656 572.867188 779.304688 572.835938 779.007812 572.78125 C 776.421875 572.300781 774.71875 569.816406 775.199219 567.230469 C 775.722656 564.417969 774.996094 561.53125 773.199219 559.308594 C 772.097656 557.945312 770.660156 556.902344 769.035156 556.300781 C 766.570312 555.378906 765.316406 552.636719 766.238281 550.171875 C 767.160156 547.707031 769.902344 546.457031 772.363281 547.375 C 775.585938 548.582031 778.4375 550.640625 780.609375 553.328125 C 784.152344 557.722656 785.59375 563.421875 784.558594 568.972656 C 784.136719 571.261719 782.136719 572.867188 779.886719 572.867188 " fill-opacity="1" fill-rule="nonzero"/><g clip-path="url(#661e947464)"><path fill="#000000" d="M 793.039062 454.886719 L 777.167969 454.886719 L 777.167969 233.617188 C 777.167969 224.371094 769.382812 216.847656 759.820312 216.847656 L 50.179688 216.847656 C 40.613281 216.847656 32.832031 224.371094 32.832031 233.617188 L 32.832031 454.886719 L 16.960938 454.886719 L 16.960938 233.617188 C 16.960938 215.621094 31.867188 200.976562 50.179688 200.976562 L 759.820312 200.976562 C 778.136719 200.976562 793.039062 215.621094 793.039062 233.617188 L 793.039062 454.886719 " fill-opacity="1" fill-rule="nonzero"/></g><path fill="#000000" d="M 16.167969 496.941406 L 793.832031 496.941406 L 793.832031 462.820312 L 16.167969 462.820312 Z M 809.703125 512.808594 L 0.296875 512.808594 L 0.296875 446.953125 L 809.703125 446.953125 L 809.703125 512.808594 " fill-opacity="1" fill-rule="nonzero"/><path fill="#000000" d="M 74.550781 255.726562 C 71.238281 255.726562 68.542969 258.421875 68.542969 261.738281 L 68.542969 400.480469 C 68.542969 403.792969 71.238281 406.484375 74.550781 406.484375 L 75.226562 406.484375 C 78.542969 406.484375 81.238281 403.792969 81.238281 400.480469 L 81.238281 261.738281 C 81.238281 258.421875 78.542969 255.726562 75.226562 255.726562 Z M 75.226562 422.355469 L 74.550781 422.355469 C 62.484375 422.355469 52.671875 412.542969 52.671875 400.480469 L 52.671875 261.738281 C 52.671875 249.675781 62.484375 239.859375 74.550781 239.859375 L 75.226562 239.859375 C 87.296875 239.859375 97.109375 249.675781 97.109375 261.738281 L 97.109375 400.480469 C 97.109375 412.542969 87.296875 422.355469 75.226562 422.355469 " fill-opacity="1" fill-rule="nonzero"/><path fill="#000000" d="M 134.859375 255.726562 C 131.546875 255.726562 128.851562 258.421875 128.851562 261.738281 L 128.851562 400.480469 C 128.851562 403.792969 131.546875 406.484375 134.859375 406.484375 L 135.535156 406.484375 C 138.851562 406.484375 141.546875 403.792969 141.546875 400.480469 L 141.546875 261.738281 C 141.546875 258.421875 138.851562 255.726562 135.535156 255.726562 Z M 135.535156 422.355469 L 134.859375 422.355469 C 122.792969 422.355469 112.980469 412.542969 112.980469 400.480469 L 112.980469 261.738281 C 112.980469 249.675781 122.792969 239.859375 134.859375 239.859375 L 135.535156 239.859375 C 147.605469 239.859375 157.417969 249.675781 157.417969 261.738281 L 157.417969 400.480469 C 157.417969 412.542969 147.605469 422.355469 135.535156 422.355469 " fill-opacity="1" fill-rule="nonzero"/><path fill="#000000" d="M 195.167969 255.726562 C 191.855469 255.726562 189.160156 258.421875 189.160156 261.738281 L 189.160156 400.480469 C 189.160156 403.792969 191.855469 406.484375 195.167969 406.484375 L 195.84375 406.484375 C 199.160156 406.484375 201.855469 403.792969 201.855469 400.480469 L 201.855469 261.738281 C 201.855469 258.421875 199.160156 255.726562 195.84375 255.726562 Z M 195.84375 422.355469 L 195.167969 422.355469 C 183.101562 422.355469 173.289062 412.542969 173.289062 400.480469 L 173.289062 261.738281 C 173.289062 249.675781 183.101562 239.859375 195.167969 239.859375 L 195.84375 239.859375 C 207.914062 239.859375 217.726562 249.675781 217.726562 261.738281 L 217.726562 400.480469 C 217.726562 412.542969 207.914062 422.355469 195.84375 422.355469 " fill-opacity="1" fill-rule="nonzero"/><path fill="#000000" d="M 254.683594 255.726562 C 251.371094 255.726562 248.671875 258.421875 248.671875 261.738281 L 248.671875 400.480469 C 248.671875 403.792969 251.371094 406.484375 254.683594 406.484375 L 255.359375 406.484375 C 258.671875 406.484375 261.371094 403.792969 261.371094 400.480469 L 261.371094 261.738281 C 261.371094 258.421875 258.671875 255.726562 255.359375 255.726562 Z M 255.359375 422.355469 L 254.683594 422.355469 C 242.617188 422.355469 232.804688 412.542969 232.804688 400.480469 L 232.804688 261.738281 C 232.804688 249.675781 242.617188 239.859375 254.683594 239.859375 L 255.359375 239.859375 C 267.425781 239.859375 277.242188 249.675781 277.242188 261.738281 L 277.242188 400.480469 C 277.242188 412.542969 267.425781 422.355469 255.359375 422.355469 " fill-opacity="1" fill-rule="nonzero"/><path fill="#000000" d="M 314.992188 255.726562 C 311.679688 255.726562 308.980469 258.421875 308.980469 261.738281 L 308.980469 400.480469 C 308.980469 403.792969 311.679688 406.484375 314.992188 406.484375 L 315.667969 406.484375 C 318.980469 406.484375 321.679688 403.792969 321.679688 400.480469 L 321.679688 261.738281 C 321.679688 258.421875 318.980469 255.726562 315.667969 255.726562 Z M 315.667969 422.355469 L 314.992188 422.355469 C 302.925781 422.355469 293.113281 412.542969 293.113281 400.480469 L 293.113281 261.738281 C 293.113281 249.675781 302.925781 239.859375 314.992188 239.859375 L 315.667969 239.859375 C 327.734375 239.859375 337.550781 249.675781 337.550781 261.738281 L 337.550781 400.480469 C 337.550781 412.542969 327.734375 422.355469 315.667969 422.355469 " fill-opacity="1" fill-rule="nonzero"/><path fill="#000000" d="M 374.507812 255.726562 C 371.195312 255.726562 368.496094 258.421875 368.496094 261.738281 L 368.496094 400.480469 C 368.496094 403.792969 371.195312 406.484375 374.507812 406.484375 L 375.183594 406.484375 C 378.496094 406.484375 381.195312 403.792969 381.195312 400.480469 L 381.195312 261.738281 C 381.195312 258.421875 378.496094 255.726562 375.183594 255.726562 Z M 375.183594 422.355469 L 374.507812 422.355469 C 362.441406 422.355469 352.625 412.542969 352.625 400.480469 L 352.625 261.738281 C 352.625 249.675781 362.441406 239.859375 374.507812 239.859375 L 375.183594 239.859375 C 387.25 239.859375 397.066406 249.675781 397.066406 261.738281 L 397.066406 400.480469 C 397.066406 412.542969 387.25 422.355469 375.183594 422.355469 " fill-opacity="1" fill-rule="nonzero"/><path fill="#000000" d="M 434.816406 255.726562 C 431.503906 255.726562 428.804688 258.421875 428.804688 261.738281 L 428.804688 400.480469 C 428.804688 403.792969 431.503906 406.484375 434.816406 406.484375 L 435.492188 406.484375 C 438.804688 406.484375 441.503906 403.792969 441.503906 400.480469 L 441.503906 261.738281 C 441.503906 258.421875 438.804688 255.726562 435.492188 255.726562 Z M 435.492188 422.355469 L 434.816406 422.355469 C 422.75 422.355469 412.933594 412.542969 412.933594 400.480469 L 412.933594 261.738281 C 412.933594 249.675781 422.75 239.859375 434.816406 239.859375 L 435.492188 239.859375 C 447.558594 239.859375 457.375 249.675781 457.375 261.738281 L 457.375 400.480469 C 457.375 412.542969 447.558594 422.355469 435.492188 422.355469 " fill-opacity="1" fill-rule="nonzero"/><path fill="#000000" d="M 495.125 255.726562 C 491.8125 255.726562 489.113281 258.421875 489.113281 261.738281 L 489.113281 400.480469 C 489.113281 403.792969 491.8125 406.484375 495.125 406.484375 L 495.800781 406.484375 C 499.113281 406.484375 501.8125 403.792969 501.8125 400.480469 L 501.8125 261.738281 C 501.8125 258.421875 499.113281 255.726562 495.800781 255.726562 Z M 495.800781 422.355469 L 495.125 422.355469 C 483.058594 422.355469 473.242188 412.542969 473.242188 400.480469 L 473.242188 261.738281 C 473.242188 249.675781 483.058594 239.859375 495.125 239.859375 L 495.800781 239.859375 C 507.867188 239.859375 517.683594 249.675781 517.683594 261.738281 L 517.683594 400.480469 C 517.683594 412.542969 507.867188 422.355469 495.800781 422.355469 " fill-opacity="1" fill-rule="nonzero"/><path fill="#000000" d="M 554.640625 255.726562 C 551.328125 255.726562 548.628906 258.421875 548.628906 261.738281 L 548.628906 400.480469 C 548.628906 403.792969 551.328125 406.484375 554.640625 406.484375 L 555.316406 406.484375 C 558.628906 406.484375 561.328125 403.792969 561.328125 400.480469 L 561.328125 261.738281 C 561.328125 258.421875 558.628906 255.726562 555.316406 255.726562 Z M 555.316406 422.355469 L 554.640625 422.355469 C 542.574219 422.355469 532.757812 412.542969 532.757812 400.480469 L 532.757812 261.738281 C 532.757812 249.675781 542.574219 239.859375 554.640625 239.859375 L 555.316406 239.859375 C 567.382812 239.859375 577.195312 249.675781 577.195312 261.738281 L 577.195312 400.480469 C 577.195312 412.542969 567.382812 422.355469 555.316406 422.355469 " fill-opacity="1" fill-rule="nonzero"/><path fill="#000000" d="M 614.949219 255.726562 C 611.636719 255.726562 608.9375 258.421875 608.9375 261.738281 L 608.9375 400.480469 C 608.9375 403.792969 611.636719 406.484375 614.949219 406.484375 L 615.625 406.484375 C 618.9375 406.484375 621.632812 403.792969 621.632812 400.480469 L 621.632812 261.738281 C 621.632812 258.421875 618.9375 255.726562 615.625 255.726562 Z M 615.625 422.355469 L 614.949219 422.355469 C 602.882812 422.355469 593.066406 412.542969 593.066406 400.480469 L 593.066406 261.738281 C 593.066406 249.675781 602.882812 239.859375 614.949219 239.859375 L 615.625 239.859375 C 627.691406 239.859375 637.503906 249.675781 637.503906 261.738281 L 637.503906 400.480469 C 637.503906 412.542969 627.691406 422.355469 615.625 422.355469 " fill-opacity="1" fill-rule="nonzero"/><path fill="#000000" d="M 675.257812 255.726562 C 671.945312 255.726562 669.246094 258.421875 669.246094 261.738281 L 669.246094 400.480469 C 669.246094 403.792969 671.945312 406.484375 675.257812 406.484375 L 675.933594 406.484375 C 679.246094 406.484375 681.941406 403.792969 681.941406 400.480469 L 681.941406 261.738281 C 681.941406 258.421875 679.246094 255.726562 675.933594 255.726562 Z M 675.933594 422.355469 L 675.257812 422.355469 C 663.191406 422.355469 653.375 412.542969 653.375 400.480469 L 653.375 261.738281 C 653.375 249.675781 663.191406 239.859375 675.257812 239.859375 L 675.933594 239.859375 C 688 239.859375 697.8125 249.675781 697.8125 261.738281 L 697.8125 400.480469 C 697.8125 412.542969 688 422.355469 675.933594 422.355469 " fill-opacity="1" fill-rule="nonzero"/><path fill="#000000" d="M 734.773438 255.726562 C 731.457031 255.726562 728.761719 258.421875 728.761719 261.738281 L 728.761719 400.480469 C 728.761719 403.792969 731.457031 406.484375 734.773438 406.484375 L 735.449219 406.484375 C 738.761719 406.484375 741.457031 403.792969 741.457031 400.480469 L 741.457031 261.738281 C 741.457031 258.421875 738.761719 255.726562 735.449219 255.726562 Z M 735.449219 422.355469 L 734.773438 422.355469 C 722.703125 422.355469 712.890625 412.542969 712.890625 400.480469 L 712.890625 261.738281 C 712.890625 249.675781 722.703125 239.859375 734.773438 239.859375 L 735.449219 239.859375 C 747.515625 239.859375 757.328125 249.675781 757.328125 261.738281 L 757.328125 400.480469 C 757.328125 412.542969 747.515625 422.355469 735.449219 422.355469 " fill-opacity="1" fill-rule="nonzero"/><g clip-path="url(#8d9e4f7bd9)"><path fill="#000000" d="M 46.894531 540.421875 C 41.078125 540.421875 35.226562 542.328125 30.359375 546.257812 C 19.042969 555.386719 17.265625 572.023438 26.398438 583.335938 C 35.53125 594.652344 52.164062 596.429688 63.476562 587.296875 C 74.792969 578.164062 76.570312 561.535156 67.441406 550.222656 C 62.238281 543.769531 54.597656 540.421875 46.894531 540.421875 Z M 46.957031 608.996094 C 34.617188 608.996094 22.382812 603.632812 14.046875 593.300781 C -0.578125 575.179688 2.265625 548.535156 20.394531 533.910156 C 38.515625 519.28125 65.164062 522.128906 79.789062 540.253906 C 94.417969 558.378906 91.570312 585.023438 73.445312 599.648438 C 65.648438 605.9375 56.273438 608.996094 46.957031 608.996094 " fill-opacity="1" fill-rule="nonzero"/></g><g clip-path="url(#be80925a20)"><path fill="#000000" d="M 202.023438 540.40625 C 196.023438 540.40625 190.25 542.4375 185.511719 546.257812 C 174.199219 555.386719 172.421875 572.019531 181.550781 583.335938 C 190.683594 594.652344 207.316406 596.429688 218.632812 587.296875 C 224.113281 582.875 227.546875 576.582031 228.292969 569.582031 C 229.042969 562.574219 227.019531 555.699219 222.59375 550.222656 L 222.59375 550.21875 C 218.171875 544.738281 211.878906 541.308594 204.875 540.558594 C 203.921875 540.457031 202.96875 540.40625 202.023438 540.40625 Z M 202.117188 608.996094 C 189.773438 608.996094 177.539062 603.632812 169.203125 593.300781 C 154.574219 575.179688 157.421875 548.535156 175.546875 533.910156 C 184.328125 526.824219 195.347656 523.582031 206.5625 524.78125 C 217.777344 525.980469 227.859375 531.476562 234.945312 540.253906 C 249.574219 558.378906 246.726562 585.023438 228.601562 599.648438 C 220.804688 605.9375 211.425781 608.996094 202.117188 608.996094 " fill-opacity="1" fill-rule="nonzero"/></g><path fill="#000000" d="M 124.566406 592.949219 L 124.242188 592.949219 C 111.03125 592.949219 100.28125 582.105469 100.28125 568.769531 L 100.28125 504.875 L 116.152344 504.875 L 116.152344 568.769531 C 116.152344 573.273438 119.859375 577.082031 124.242188 577.082031 L 124.566406 577.082031 C 128.960938 577.082031 132.816406 573.195312 132.816406 568.769531 L 132.816406 504.875 L 148.6875 504.875 L 148.6875 568.769531 C 148.6875 581.878906 137.640625 592.949219 124.566406 592.949219 " fill-opacity="1" fill-rule="nonzero"/><path fill="#000000" d="M 108.21875 565.972656 L 81.238281 565.972656 L 81.238281 550.101562 L 108.21875 550.101562 L 108.21875 565.972656 " fill-opacity="1" fill-rule="nonzero"/><path fill="#000000" d="M 172.496094 565.972656 L 145.515625 565.972656 L 145.515625 550.101562 L 172.496094 550.101562 L 172.496094 565.972656 " fill-opacity="1" fill-rule="nonzero"/><g clip-path="url(#29c2d0706c)"><path fill="#000000" d="M 607.898438 540.421875 C 602.085938 540.421875 596.230469 542.328125 591.367188 546.257812 C 580.050781 555.386719 578.273438 572.023438 587.40625 583.335938 C 596.535156 594.652344 613.171875 596.429688 624.488281 587.296875 C 635.804688 578.164062 637.578125 561.535156 628.449219 550.222656 C 623.242188 543.769531 615.601562 540.421875 607.898438 540.421875 Z M 607.96875 608.996094 C 595.628906 608.996094 583.390625 603.632812 575.054688 593.300781 C 560.425781 575.179688 563.273438 548.535156 581.398438 533.910156 C 599.523438 519.28125 626.171875 522.128906 640.796875 540.253906 C 655.425781 558.378906 652.578125 585.023438 634.453125 599.648438 C 626.65625 605.9375 617.28125 608.996094 607.96875 608.996094 " fill-opacity="1" fill-rule="nonzero"/></g><g clip-path="url(#dd933bbc51)"><path fill="#000000" d="M 763.03125 540.40625 C 757.03125 540.40625 751.257812 542.4375 746.523438 546.257812 C 735.207031 555.386719 733.429688 572.019531 742.558594 583.335938 C 751.691406 594.652344 768.324219 596.429688 779.640625 587.296875 C 785.121094 582.875 788.554688 576.582031 789.300781 569.582031 C 790.050781 562.574219 788.027344 555.699219 783.601562 550.222656 L 783.601562 550.21875 C 779.179688 544.738281 772.886719 541.308594 765.882812 540.558594 C 764.929688 540.457031 763.976562 540.40625 763.03125 540.40625 Z M 763.121094 608.996094 C 750.78125 608.996094 738.542969 603.632812 730.210938 593.300781 C 715.582031 575.179688 718.429688 548.535156 736.554688 533.910156 C 745.335938 526.824219 756.351562 523.582031 767.566406 524.78125 C 778.789062 525.980469 788.867188 531.476562 795.953125 540.253906 C 810.582031 558.378906 807.734375 585.023438 789.609375 599.648438 C 781.8125 605.9375 772.4375 608.996094 763.121094 608.996094 " fill-opacity="1" fill-rule="nonzero"/></g><path fill="#000000" d="M 685.574219 592.949219 L 685.25 592.949219 C 672.050781 592.949219 661.3125 582.105469 661.3125 568.769531 L 661.3125 504.875 L 677.183594 504.875 L 677.183594 568.769531 C 677.183594 573.273438 680.878906 577.082031 685.25 577.082031 L 685.574219 577.082031 C 689.980469 577.082031 693.847656 573.195312 693.847656 568.769531 L 693.847656 504.875 L 709.71875 504.875 L 709.71875 568.769531 C 709.71875 581.878906 698.660156 592.949219 685.574219 592.949219 " fill-opacity="1" fill-rule="nonzero"/><path fill="#000000" d="M 669.246094 565.972656 L 642.265625 565.972656 L 642.265625 550.101562 L 669.246094 550.101562 L 669.246094 565.972656 " fill-opacity="1" fill-rule="nonzero"/><path fill="#000000" d="M 733.523438 565.972656 L 706.542969 565.972656 L 706.542969 550.101562 L 733.523438 550.101562 L 733.523438 565.972656 " fill-opacity="1" fill-rule="nonzero"/><path fill="#000000" d="M 54.679688 560.515625 C 58.140625 564.800781 57.464844 571.082031 53.183594 574.535156 C 48.894531 577.996094 42.617188 577.324219 39.160156 573.039062 C 35.699219 568.753906 36.371094 562.476562 40.65625 559.015625 C 44.941406 555.558594 51.21875 556.230469 54.679688 560.515625 " fill-opacity="1" fill-rule="nonzero"/><path fill="#000000" d="M 209.835938 560.515625 C 213.292969 564.800781 212.621094 571.082031 208.335938 574.535156 C 204.050781 577.996094 197.773438 577.324219 194.3125 573.039062 C 190.855469 568.753906 191.523438 562.476562 195.8125 559.015625 C 200.097656 555.558594 206.375 556.230469 209.835938 560.515625 " fill-opacity="1" fill-rule="nonzero"/><path fill="#000000" d="M 615.6875 560.515625 C 619.144531 564.800781 618.476562 571.082031 614.1875 574.535156 C 609.902344 577.996094 603.625 577.324219 600.164062 573.039062 C 596.707031 568.753906 597.378906 562.476562 601.664062 559.015625 C 605.949219 555.558594 612.226562 556.230469 615.6875 560.515625 " fill-opacity="1" fill-rule="nonzero"/><path fill="#000000" d="M 770.839844 560.515625 C 774.300781 564.800781 773.628906 571.082031 769.34375 574.535156 C 765.058594 577.996094 758.78125 577.324219 755.320312 573.039062 C 751.859375 568.753906 752.535156 562.476562 756.816406 559.015625 C 761.105469 555.558594 767.382812 556.230469 770.839844 560.515625 " fill-opacity="1" fill-rule="nonzero"/></svg>