<svg xmlns="http://www.w3.org/2000/svg" xmlns:xlink="http://www.w3.org/1999/xlink" width="1080" zoomAndPan="magnify" viewBox="0 0 810 809.999993" height="1080" preserveAspectRatio="xMidYMid meet" version="1.0"><defs><clipPath id="53af370e04"><path d="M 263 185.792969 L 547 185.792969 L 547 221 L 263 221 Z M 263 185.792969 " clip-rule="nonzero"/></clipPath><clipPath id="7015fa589c"><path d="M 59 514.585938 L 164 514.585938 L 164 624.542969 L 59 624.542969 Z M 59 514.585938 " clip-rule="nonzero"/></clipPath><clipPath id="f0a9381dbb"><path d="M 267 514.585938 L 372 514.585938 L 372 624.542969 L 267 624.542969 Z M 267 514.585938 " clip-rule="nonzero"/></clipPath><clipPath id="39ef156eb5"><path d="M 442.699219 514.585938 L 546.828125 514.585938 L 546.828125 624.542969 L 442.699219 624.542969 Z M 442.699219 514.585938 " clip-rule="nonzero"/></clipPath><clipPath id="80ae18bb6a"><path d="M 650 514.585938 L 755 514.585938 L 755 624.542969 L 650 624.542969 Z M 650 514.585938 " clip-rule="nonzero"/></clipPath></defs><path fill="#000000" d="M 788.332031 299.730469 L 767.882812 299.730469 L 767.882812 434.886719 L 788.332031 434.886719 C 799.675781 434.886719 808.941406 425.597656 808.941406 414.261719 L 808.941406 320.347656 C 808.941406 309.007812 799.605469 299.730469 788.332031 299.730469 " fill-opacity="1" fill-rule="evenodd"/><path fill="#000000" d="M 256.1875 531.207031 C 263.28125 531.207031 269.058594 525.367188 269.058594 518.304688 C 269.058594 514.675781 267.535156 511.40625 265.128906 509.035156 L 166.429688 509.035156 C 164.019531 511.40625 162.488281 514.675781 162.488281 518.304688 C 162.488281 525.367188 168.28125 531.207031 175.371094 531.207031 L 256.1875 531.207031 " fill-opacity="1" fill-rule="evenodd"/><g clip-path="url(#53af370e04)"><path fill="#000000" d="M 540.328125 220.484375 C 544.097656 216.808594 546.46875 211.664062 546.46875 206 C 546.46875 194.882812 537.332031 185.792969 526.273438 185.792969 L 283.710938 185.792969 C 272.667969 185.792969 263.53125 194.882812 263.53125 205.992188 C 263.53125 211.664062 265.882812 216.808594 269.671875 220.484375 L 540.328125 220.484375 " fill-opacity="1" fill-rule="evenodd"/></g><path fill="#000000" d="M 1.058594 320.347656 L 1.058594 414.261719 C 1.058594 425.597656 10.332031 434.886719 21.664062 434.886719 L 42.113281 434.886719 L 42.113281 299.730469 L 21.664062 299.730469 C 10.335938 299.730469 1.058594 309.015625 1.058594 320.347656 " fill-opacity="1" fill-rule="evenodd"/><path fill="#000000" d="M 714.507812 398.234375 C 714.507812 409.515625 705.171875 418.859375 693.898438 418.859375 L 116.101562 418.859375 C 104.835938 418.859375 95.488281 409.570312 95.488281 398.234375 L 95.488281 336.378906 C 95.488281 325.03125 104.757812 315.75 116.097656 315.75 L 693.894531 315.75 C 705.222656 315.75 714.503906 325.097656 714.503906 336.378906 Z M 619.96875 490.566406 L 604.207031 490.566406 L 604.207031 429.710938 L 619.96875 429.710938 Z M 587.367188 490.566406 L 571.710938 490.566406 L 571.710938 429.710938 L 587.367188 429.710938 Z M 238.289062 490.566406 L 222.5625 490.566406 L 222.5625 429.710938 L 238.289062 429.710938 Z M 205.722656 490.566406 L 190.015625 490.566406 L 190.015625 429.710938 L 205.722656 429.710938 Z M 190.015625 241.976562 L 205.722656 241.976562 L 205.722656 303.257812 L 190.015625 303.257812 Z M 222.5625 241.976562 L 238.289062 241.976562 L 238.289062 303.257812 L 222.5625 303.257812 Z M 571.710938 241.976562 L 587.367188 241.976562 L 587.367188 303.257812 L 571.710938 303.257812 Z M 604.207031 241.976562 L 619.96875 241.976562 L 619.96875 303.257812 L 604.207031 303.257812 Z M 677.273438 229.300781 L 132.726562 229.300781 C 87.289062 229.300781 50.121094 266.496094 50.121094 311.960938 L 50.121094 422.183594 C 50.121094 467.640625 87.351562 504.847656 132.726562 504.847656 L 677.273438 504.847656 C 722.640625 504.847656 759.875 467.585938 759.875 422.183594 L 759.875 311.960938 C 759.875 266.558594 722.710938 229.300781 677.273438 229.300781 " fill-opacity="1" fill-rule="evenodd"/><path fill="#000000" d="M 677.363281 323.023438 L 132.636719 323.023438 C 122.96875 323.023438 114.933594 331.066406 114.933594 340.734375 L 114.933594 393.867188 C 114.933594 403.550781 122.902344 411.582031 132.632812 411.582031 L 677.363281 411.582031 C 687.09375 411.582031 695.0625 403.605469 695.0625 393.867188 L 695.0625 340.734375 C 695.0625 331 687.019531 323.023438 677.363281 323.023438 " fill-opacity="1" fill-rule="evenodd"/><path fill="#000000" d="M 638.871094 531.207031 C 645.890625 531.207031 651.746094 525.367188 651.746094 518.304688 C 651.746094 514.675781 650.21875 511.40625 647.8125 509.035156 L 549.109375 509.035156 C 546.703125 511.40625 545.175781 514.675781 545.175781 518.304688 C 545.175781 525.367188 551.027344 531.207031 558.046875 531.207031 L 638.871094 531.207031 " fill-opacity="1" fill-rule="evenodd"/><path fill="#000000" d="M 265.417969 561.859375 C 263.726562 564.121094 260.40625 568.703125 258.234375 570.515625 L 257.984375 570.695312 L 257.769531 570.785156 C 253.890625 572.421875 248.648438 572.117188 248.414062 566.746094 C 248.269531 564.03125 248.164062 560.976562 248.414062 558.355469 C 248.414062 552.730469 251.574219 551.203125 256.816406 551.203125 C 263.621094 551.203125 271.679688 553.609375 265.417969 561.859375 Z M 238.917969 575.476562 C 239.023438 585.195312 191.304688 585.96875 192.167969 575.421875 L 192.167969 561.910156 L 203.40625 561.910156 C 202.023438 560.492188 200.191406 559.449219 198.308594 559.539062 C 190.320312 559.882812 191.289062 550.144531 198.863281 550.144531 L 232.222656 550.144531 C 239.816406 550.144531 240.785156 559.882812 232.777344 559.539062 C 230.894531 559.449219 229.0625 560.492188 227.679688 561.910156 L 238.917969 561.910156 Z M 182.671875 566.746094 C 182.417969 572.117188 177.144531 572.421875 173.324219 570.785156 L 173.089844 570.695312 L 172.832031 570.515625 C 170.679688 568.703125 167.382812 564.121094 165.660156 561.859375 C 159.402344 553.609375 167.460938 551.203125 174.265625 551.203125 C 179.507812 551.203125 182.671875 552.730469 182.671875 558.28125 C 182.90625 560.976562 182.796875 564.03125 182.671875 566.746094 Z M 279.167969 574.328125 C 282.632812 574.453125 301.410156 574.019531 301.410156 578.78125 C 301.699219 582.269531 304.839844 585.734375 308.558594 585.84375 C 312.292969 585.96875 315.683594 585.808594 319.417969 585.808594 C 324.121094 585.808594 326.867188 579.714844 327.640625 575.78125 L 328.019531 573.75 L 337.390625 573.285156 C 339.21875 567.175781 340.816406 560.832031 342.074219 554.636719 C 343.617188 547.125 340.890625 539.832031 332.363281 539.417969 C 253.386719 535.535156 178.027344 535.535156 98.742188 539.417969 C 90.214844 539.832031 87.492188 547.125 89.023438 554.636719 C 90.285156 560.832031 91.898438 567.175781 93.707031 573.285156 L 103.105469 573.75 L 103.484375 575.78125 C 104.238281 579.714844 106.972656 585.808594 111.679688 585.808594 C 115.402344 585.808594 118.8125 585.96875 122.542969 585.84375 C 126.253906 585.734375 129.410156 582.269531 129.695312 578.78125 C 129.695312 574.019531 148.484375 574.453125 151.933594 574.328125 L 153.203125 574.289062 L 168.800781 592.617188 L 168.957031 593.066406 C 170.960938 598.097656 180.875 599.011719 185.21875 598.886719 C 195.292969 598.617188 205.507812 598.5625 215.507812 598.886719 C 225.597656 598.5625 235.8125 598.617188 245.902344 598.886719 C 250.226562 599.011719 260.15625 598.097656 262.148438 593.066406 L 262.308594 592.617188 L 277.894531 574.289062 L 279.167969 574.328125 " fill-opacity="1" fill-rule="evenodd"/><g clip-path="url(#7015fa589c)"><path fill="#000000" d="M 142.339844 580.292969 C 140.453125 580.417969 138.574219 580.542969 136.703125 580.742188 C 136.226562 580.792969 135.496094 580.867188 134.824219 580.972656 C 134.722656 581.207031 133.828125 583.527344 131.296875 587.460938 C 129.09375 589.832031 126.167969 591.199219 122.746094 591.304688 L 122.703125 591.304688 L 113.722656 591.289062 L 111.449219 591.289062 L 111.203125 591.269531 L 110.980469 591.269531 C 106.222656 590.964844 102.800781 587.800781 100.597656 583.707031 C 99.863281 582.339844 99.167969 580.667969 98.664062 579.035156 L 98.65625 579.015625 L 89.292969 577.597656 L 89 576.644531 C 86.933594 569.835938 85.089844 562.683594 83.664062 555.730469 C 83.511719 554.976562 83.390625 554.222656 83.300781 553.449219 C 83.0625 549.820312 83.398438 546.855469 84.105469 544.449219 C 84.820312 542.308594 85.949219 540.316406 87.589844 538.609375 C 90.480469 535.609375 94.359375 534.152344 98.476562 533.9375 C 116.785156 533.074219 135.785156 533.558594 154.046875 532.410156 C 145.691406 521.484375 129.730469 514.605469 114.640625 514.605469 C 84.289062 514.605469 59.671875 539.238281 59.671875 569.601562 C 59.671875 599.984375 84.289062 624.617188 114.640625 624.617188 C 135.910156 624.617188 154.355469 612.507812 163.492188 594.828125 L 150.769531 579.859375 C 147.949219 579.96875 145.140625 580.113281 142.339844 580.292969 " fill-opacity="1" fill-rule="evenodd"/></g><g clip-path="url(#f0a9381dbb)"><path fill="#000000" d="M 316.203125 514.605469 C 301.105469 514.605469 285.128906 521.484375 276.796875 532.410156 C 295.054688 533.558594 314.050781 533.074219 332.363281 533.9375 C 336.472656 534.152344 340.351562 535.609375 343.242188 538.609375 C 344.894531 540.316406 346.007812 542.308594 346.726562 544.449219 C 347.441406 546.855469 347.765625 549.820312 347.53125 553.449219 C 347.441406 554.222656 347.316406 554.976562 347.171875 555.730469 C 345.738281 562.683594 343.886719 569.835938 341.824219 576.644531 L 341.535156 577.597656 L 332.183594 579.015625 L 332.164062 579.035156 C 331.664062 580.667969 330.960938 582.339844 330.242188 583.707031 C 328.035156 587.800781 324.605469 590.964844 319.847656 591.269531 L 319.632812 591.269531 L 319.148438 591.289062 L 317.121094 591.289062 L 308.125 591.304688 L 308.089844 591.304688 C 304.660156 591.199219 301.734375 589.832031 299.542969 587.460938 C 297.011719 583.527344 296.097656 581.207031 296.007812 580.972656 C 295.34375 580.867188 294.609375 580.792969 294.121094 580.742188 C 292.253906 580.542969 290.371094 580.417969 288.503906 580.292969 C 285.703125 580.113281 282.882812 579.96875 280.066406 579.859375 L 267.335938 594.828125 C 276.476562 612.507812 294.929688 624.617188 316.203125 624.617188 C 346.546875 624.617188 371.160156 599.984375 371.160156 569.601562 C 371.160156 539.238281 346.546875 514.605469 316.203125 514.605469 " fill-opacity="1" fill-rule="evenodd"/></g><path fill="#000000" d="M 648.476562 561.859375 C 646.789062 564.121094 643.449219 568.703125 641.277344 570.515625 L 641.042969 570.695312 L 640.8125 570.785156 C 636.953125 572.421875 631.710938 572.117188 631.457031 566.746094 C 631.3125 564.03125 631.222656 560.976562 631.457031 558.355469 C 631.457031 552.730469 634.636719 551.203125 639.878906 551.203125 C 646.683594 551.203125 654.742188 553.609375 648.476562 561.859375 Z M 621.980469 575.476562 C 622.070312 585.195312 574.367188 585.96875 575.210938 575.421875 L 575.210938 561.910156 L 586.449219 561.910156 C 585.066406 560.492188 583.253906 559.449219 581.371094 559.539062 C 573.378906 559.882812 574.332031 550.144531 581.90625 550.144531 L 615.265625 550.144531 C 622.875 550.144531 623.828125 559.882812 615.820312 559.539062 C 613.953125 559.449219 612.105469 560.492188 610.742188 561.910156 L 621.980469 561.910156 Z M 565.714844 566.746094 C 565.480469 572.117188 560.203125 572.421875 556.378906 570.785156 L 556.144531 570.695312 L 555.875 570.515625 C 553.738281 568.703125 550.4375 564.121094 548.714844 561.859375 C 542.449219 553.609375 550.507812 551.203125 557.3125 551.203125 C 562.554688 551.203125 565.714844 552.730469 565.714844 558.28125 C 565.964844 560.976562 565.839844 564.03125 565.714844 566.746094 Z M 662.210938 574.328125 C 665.675781 574.453125 684.453125 574.019531 684.453125 578.78125 C 684.742188 582.269531 687.902344 585.734375 691.617188 585.84375 C 695.351562 585.96875 698.746094 585.808594 702.480469 585.808594 C 707.183594 585.808594 709.929688 579.714844 710.683594 575.78125 L 711.0625 573.75 L 720.449219 573.285156 C 722.265625 567.175781 723.863281 560.832031 725.136719 554.636719 C 726.664062 547.125 723.933594 539.832031 715.40625 539.417969 C 636.449219 535.535156 561.082031 535.535156 481.785156 539.417969 C 473.257812 539.832031 470.546875 547.125 472.070312 554.636719 C 473.328125 560.832031 474.945312 567.175781 476.757812 573.285156 L 486.164062 573.75 L 486.542969 575.78125 C 487.296875 579.714844 490.023438 585.808594 494.726562 585.808594 C 498.445312 585.808594 501.855469 585.96875 505.589844 585.84375 C 509.304688 585.734375 512.464844 582.269531 512.753906 578.78125 C 512.753906 574.019531 531.53125 574.453125 534.996094 574.328125 L 536.253906 574.289062 L 551.855469 592.617188 L 552 593.066406 C 554.007812 598.097656 563.9375 599.011719 568.261719 598.886719 C 578.335938 598.617188 588.550781 598.5625 598.566406 598.886719 C 608.65625 598.5625 618.871094 598.617188 628.945312 598.886719 C 633.269531 599.011719 643.199219 598.097656 645.210938 593.066406 L 645.351562 592.617188 L 660.953125 574.289062 L 662.210938 574.328125 " fill-opacity="1" fill-rule="evenodd"/><g clip-path="url(#39ef156eb5)"><path fill="#000000" d="M 525.390625 580.292969 C 523.507812 580.417969 521.621094 580.542969 519.753906 580.742188 C 519.269531 580.792969 518.550781 580.867188 517.871094 580.972656 C 517.78125 581.207031 516.882812 583.527344 514.351562 587.460938 C 512.144531 589.832031 509.214844 591.199219 505.789062 591.304688 L 505.75 591.304688 L 496.773438 591.289062 L 494.496094 591.289062 L 494.261719 591.269531 L 494.027344 591.269531 C 489.269531 590.964844 485.859375 587.800781 483.652344 583.707031 C 482.914062 582.339844 482.214844 580.667969 481.710938 579.035156 L 481.710938 579.015625 L 472.359375 577.597656 L 472.054688 576.644531 C 469.988281 569.835938 468.140625 562.683594 466.722656 555.730469 C 466.5625 554.976562 466.433594 554.222656 466.363281 553.449219 C 466.113281 549.820312 466.453125 546.855469 467.152344 544.449219 C 467.871094 542.308594 469.003906 540.316406 470.636719 538.609375 C 473.542969 535.609375 477.421875 534.152344 481.515625 533.9375 C 499.828125 533.074219 518.839844 533.558594 537.097656 532.410156 C 528.75 521.484375 512.789062 514.605469 497.691406 514.605469 C 467.332031 514.605469 442.738281 539.238281 442.738281 569.601562 C 442.738281 599.984375 467.332031 624.617188 497.691406 624.617188 C 518.964844 624.617188 537.402344 612.507812 546.539062 594.828125 L 533.8125 579.859375 C 531.011719 579.96875 528.191406 580.113281 525.390625 580.292969 " fill-opacity="1" fill-rule="evenodd"/></g><g clip-path="url(#80ae18bb6a)"><path fill="#000000" d="M 699.25 514.605469 C 684.148438 514.605469 668.191406 521.484375 659.839844 532.410156 C 678.101562 533.558594 697.09375 533.074219 715.40625 533.9375 C 719.535156 534.152344 723.394531 535.609375 726.285156 538.609375 C 727.9375 540.316406 729.066406 542.308594 729.785156 544.449219 C 730.484375 546.855469 730.828125 549.820312 730.59375 553.449219 C 730.484375 554.222656 730.378906 554.976562 730.21875 555.730469 C 728.796875 562.683594 726.949219 569.835938 724.886719 576.644531 L 724.597656 577.597656 L 715.226562 579.015625 L 715.226562 579.035156 C 714.722656 580.667969 714.023438 582.339844 713.289062 583.707031 C 711.078125 587.800781 707.667969 590.964844 702.910156 591.269531 L 702.675781 591.269531 L 702.445312 591.289062 L 700.164062 591.289062 L 691.1875 591.304688 L 691.132812 591.304688 C 687.722656 591.199219 684.796875 589.832031 682.589844 587.460938 C 680.054688 583.527344 679.160156 581.207031 679.070312 580.972656 C 678.386719 580.867188 677.652344 580.792969 677.183594 580.742188 C 675.316406 580.542969 673.433594 580.417969 671.546875 580.292969 C 668.746094 580.113281 665.925781 579.96875 663.109375 579.859375 L 650.398438 594.828125 C 659.535156 612.507812 677.972656 624.617188 699.25 624.617188 C 729.589844 624.617188 754.21875 599.984375 754.21875 569.601562 C 754.21875 539.238281 729.589844 514.605469 699.25 514.605469 " fill-opacity="1" fill-rule="evenodd"/></g></svg>